<svg width="25" height="25" viewBox="0 0 25 25" fill="none" xmlns="http://www.w3.org/2000/svg">
<path d="M12.5 22.9199C18.0228 22.9199 22.5 18.4428 22.5 12.9199C22.5 7.39707 18.0228 2.91992 12.5 2.91992C6.97715 2.91992 2.5 7.39707 2.5 12.9199C2.5 18.4428 6.97715 22.9199 12.5 22.9199Z" stroke="white" stroke-width="1.5" stroke-linecap="round" stroke-linejoin="round"/>
<path d="M13.2002 17.1099V18.21C13.2002 18.3877 13.1296 18.5582 13.004 18.6838C12.8783 18.8095 12.7079 18.8799 12.5302 18.8799C12.3525 18.8799 12.1821 18.8095 12.0565 18.6838C11.9308 18.5582 11.8602 18.3877 11.8602 18.21V17.0801C11.4165 17.0072 10.9917 16.8468 10.6106 16.6082C10.2294 16.3695 9.89959 16.0573 9.64024 15.6899C9.54578 15.57 9.49311 15.4226 9.49023 15.27C9.49014 15.1834 9.50763 15.0975 9.54165 15.0178C9.57567 14.9382 9.62552 14.8662 9.68817 14.8064C9.75081 14.7466 9.82495 14.7 9.90609 14.6697C9.98724 14.6393 10.0737 14.6258 10.1602 14.6299C10.2461 14.6294 10.331 14.648 10.4088 14.6843C10.4867 14.7206 10.5554 14.774 10.6102 14.8401C10.9301 15.258 11.3643 15.574 11.8602 15.75V13.21C10.5302 12.69 9.86024 11.9099 9.86024 10.8999C9.88028 10.3592 10.0928 9.84343 10.4595 9.44556C10.8262 9.04769 11.3229 8.79397 11.8602 8.72998V7.62988C11.8602 7.45219 11.9308 7.2819 12.0565 7.15625C12.1821 7.0306 12.3525 6.95996 12.5302 6.95996C12.7079 6.95996 12.8783 7.0306 13.004 7.15625C13.1296 7.2819 13.2002 7.45219 13.2002 7.62988V8.71997C13.5723 8.77828 13.9289 8.91103 14.2485 9.11035C14.5681 9.30967 14.8442 9.57137 15.0602 9.87988C15.1555 9.99235 15.2117 10.1329 15.2202 10.28C15.2229 10.3657 15.2083 10.451 15.1774 10.531C15.1464 10.611 15.0997 10.684 15.04 10.7456C14.9803 10.8072 14.9088 10.856 14.8298 10.8894C14.7509 10.9228 14.666 10.94 14.5802 10.9399C14.4906 10.9394 14.4022 10.9196 14.3211 10.8816C14.24 10.8436 14.168 10.7884 14.1102 10.72C13.8718 10.4221 13.5574 10.1942 13.2002 10.0601V12.3101L13.4502 12.4099C14.7202 12.9099 15.5102 13.63 15.5102 14.77C15.4954 15.3808 15.2481 15.9629 14.8189 16.3977C14.3897 16.8325 13.8108 17.0871 13.2002 17.1099ZM11.8602 11.73V10.0999C11.6988 10.1584 11.5599 10.2662 11.463 10.408C11.3662 10.5497 11.3162 10.7183 11.3202 10.8899C11.3185 11.0673 11.3688 11.2414 11.4647 11.3906C11.5607 11.5399 11.6981 11.6579 11.8602 11.73ZM14.0502 14.8C14.0502 14.32 13.7202 14.03 13.2002 13.8V15.8C13.4387 15.7639 13.656 15.6427 13.8122 15.459C13.9684 15.2752 14.053 15.0412 14.0502 14.8Z" fill="white"/>
</svg>
