<svg width="50" height="50" viewBox="0 0 50 50" fill="none" xmlns="http://www.w3.org/2000/svg">
<g clip-path="url(#clip0_450_73)">
<path d="M6.25 41.4062C4.95625 41.4062 3.90625 42.4562 3.90625 43.75C3.90625 45.0438 4.95625 46.0938 6.25 46.0938C7.54375 46.0938 8.59375 45.0438 8.59375 43.75C8.59375 42.4562 7.54453 41.4062 6.25 41.4062ZM6.25 44.5312C5.81797 44.5312 5.46875 44.182 5.46875 43.75C5.46875 43.318 5.81797 42.9688 6.25 42.9688C6.68203 42.9688 7.03125 43.318 7.03125 43.75C7.03125 44.182 6.68203 44.5312 6.25 44.5312Z" fill="white" stroke="white"/>
<path d="M49.7282 11.3203C49.5118 10.0828 48.7259 10.1141 48.0024 10.8375C47.279 11.5609 40.3563 18.4828 40.3563 18.4828C37.9165 20.9227 33.9587 20.9227 31.5189 18.482C29.0774 16.0414 29.0774 12.0852 31.5189 9.64375C31.5189 9.64375 38.5212 2.64141 39.1649 1.99844C39.8071 1.35547 39.8681 0.513281 38.6798 0.271875C37.7931 0.0914062 36.8759 0 35.9376 0C28.1712 0 21.8751 6.29688 21.8751 14.0625C21.8751 15.6313 22.1438 17.1352 22.6165 18.5438L1.82979 39.3313C-0.610059 41.7711 -0.610059 45.7289 1.83057 48.1695C4.27119 50.6102 8.229 50.6102 10.6688 48.1703L31.4556 27.3836C32.8657 27.857 34.3688 28.125 35.9376 28.125C43.704 28.125 50.0001 21.8281 50.0001 14.0625C50.0001 13.1242 49.8845 12.2117 49.7282 11.3203ZM9.56494 47.0656C7.73525 48.8953 4.76572 48.8953 2.93603 47.0648C1.10635 45.2344 1.10557 42.2664 2.93682 40.4359L9.0251 34.3477L15.6548 40.9766L9.56494 47.0656ZM16.7587 39.8719L10.129 33.243L23.2587 20.1133C24.6438 23.0117 26.9876 25.3562 29.8868 26.7422L16.7587 39.8719ZM35.9376 26.5625C29.0345 26.5625 23.4376 20.9656 23.4376 14.0625C23.4376 7.15937 29.0345 1.5625 35.9376 1.5625C36.4017 1.5625 36.8595 1.59219 37.311 1.64219L30.4126 8.53906C27.3626 11.5891 27.3626 16.5359 30.4126 19.5883C33.4642 22.6398 38.411 22.6383 41.4618 19.5883L48.3603 12.6914C48.4087 13.1406 48.4376 13.5984 48.4376 14.0625C48.4376 20.9656 42.8423 26.5625 35.9376 26.5625Z" fill="white" stroke="white"/>
</g>
<defs>
<clipPath id="clip0_450_73">
<rect width="50" height="50" fill="white"/>
</clipPath>
</defs>
</svg>
