<svg width="500" height="370" viewBox="0 0 500 370" fill="none" xmlns="http://www.w3.org/2000/svg">
<g clip-path="url(#clip0_395_170)">
<g clip-path="url(#clip1_395_170)">
<line x1="41.2629" y1="151.158" x2="145.77" y2="45.2012" stroke="#444444" stroke-width="0.58384"/>
<line y1="-0.29192" x2="153.335" y2="-0.29192" transform="matrix(-0.704406 -0.709797 -0.909858 0.414919 257.492 150.968)" stroke="#444444" stroke-width="0.58384"/>
<line y1="-0.29192" x2="153.335" y2="-0.29192" transform="matrix(-0.704406 -0.709797 -0.909858 0.414919 257.492 150.968)" stroke="#444444" stroke-width="0.58384"/>
<path d="M152.4 42.4869C152.4 44.0992 151.093 45.4061 149.481 45.4061C147.869 45.4061 146.562 44.0992 146.562 42.4869C146.562 40.8747 147.869 39.5677 149.481 39.5677C151.093 39.5677 152.4 40.8747 152.4 42.4869Z" fill="#A7A7A7"/>
<path d="M42.6383 151.957C42.6383 152.763 41.4621 153.417 40.0111 153.417C38.5601 153.417 37.3838 152.763 37.3838 151.957C37.3838 151.151 38.5601 150.497 40.0111 150.497C41.4621 150.497 42.6383 151.151 42.6383 151.957Z" fill="#A7A7A7"/>
<path d="M260.411 150.789C260.411 151.595 259.235 152.249 257.784 152.249C256.333 152.249 255.156 151.595 255.156 150.789C255.156 149.983 256.333 149.33 257.784 149.33C259.235 149.33 260.411 149.983 260.411 150.789Z" fill="#A7A7A7"/>
<line y1="-0.29192" x2="153.335" y2="-0.29192" transform="matrix(0.704406 0.709797 0.909858 -0.414919 41.4707 152.551)" stroke="#444444" stroke-width="0.58384"/>
<line x1="254.198" y1="154.203" x2="152.61" y2="259.294" stroke="#444444" stroke-width="0.58384"/>
<ellipse cx="2.62728" cy="1.75152" rx="2.62728" ry="1.75152" transform="matrix(1 0 0 -1 147.146 263.762)" fill="#A7A7A7"/>
<path d="M152.4 262.011C152.4 260.399 151.093 259.092 149.481 259.092C147.869 259.092 146.562 260.399 146.562 262.011C146.562 263.623 147.869 264.93 149.481 264.93C151.093 264.93 152.4 263.623 152.4 262.011Z" fill="#A7A7A7"/>
<path d="M42.6384 151.665C42.6384 150.053 41.3315 148.746 39.7192 148.746C38.107 148.746 36.8 150.053 36.8 151.665C36.8 153.277 38.107 154.584 39.7192 154.584C41.3315 154.584 42.6384 153.277 42.6384 151.665Z" fill="#A7A7A7"/>
<path d="M260.411 150.497C260.411 148.885 259.104 147.578 257.491 147.578C255.879 147.578 254.572 148.885 254.572 150.497C254.572 152.109 255.879 153.416 257.491 153.416C259.104 153.416 260.411 152.109 260.411 150.497Z" fill="#A7A7A7"/>
<line y1="-0.29192" x2="153.335" y2="-0.29192" transform="matrix(0.704406 -0.709797 0.909858 0.414919 259.243 150.196)" stroke="#444444" stroke-width="0.58384"/>
<line x1="472.139" y1="146.033" x2="367.047" y2="41.1694" stroke="#444444" stroke-width="0.58384"/>
<ellipse cx="367.546" cy="40.7353" rx="2.62728" ry="1.75152" fill="#A7A7A7"/>
<line y1="-0.29192" x2="153.335" y2="-0.29192" transform="matrix(0.704406 -0.709797 0.909858 0.414919 259.243 150.196)" stroke="#444444" stroke-width="0.58384"/>
<path d="M370.173 41.3192C370.173 42.9315 368.866 44.2384 367.253 44.2384C365.641 44.2384 364.334 42.9315 364.334 41.3192C364.334 39.707 365.641 38.4 367.253 38.4C368.866 38.4 370.173 39.707 370.173 41.3192Z" fill="#A7A7A7"/>
<path d="M260.411 150.789C260.411 151.595 259.235 152.249 257.784 152.249C256.333 152.249 255.156 151.595 255.156 150.789C255.156 149.983 256.333 149.33 257.784 149.33C259.235 149.33 260.411 149.983 260.411 150.789Z" fill="#A7A7A7"/>
<path d="M478.183 149.622C478.183 150.428 477.007 151.081 475.556 151.081C474.105 151.081 472.928 150.428 472.928 149.622C472.928 148.815 474.105 148.162 475.556 148.162C477.007 148.162 478.183 148.815 478.183 149.622Z" fill="#A7A7A7"/>
<line x1="261.786" y1="154.379" x2="363.38" y2="257.129" stroke="#444444" stroke-width="0.58384"/>
<line y1="-0.29192" x2="155.03" y2="-0.29192" transform="matrix(-0.696707 0.717356 -0.913185 -0.407544 475.264 149.404)" stroke="#444444" stroke-width="0.58384"/>
<ellipse cx="2.62728" cy="1.75152" rx="2.62728" ry="1.75152" transform="matrix(1 0 0 -1 364.918 262.595)" fill="#A7A7A7"/>
<path d="M370.173 260.843C370.173 259.231 368.866 257.924 367.253 257.924C365.641 257.924 364.334 259.231 364.334 260.843C364.334 262.455 365.641 263.762 367.253 263.762C368.866 263.762 370.173 262.455 370.173 260.843Z" fill="#A7A7A7"/>
<path d="M260.411 150.497C260.411 148.885 259.104 147.578 257.491 147.578C255.879 147.578 254.572 148.885 254.572 150.497C254.572 152.109 255.879 153.416 257.491 153.416C259.104 153.416 260.411 152.109 260.411 150.497Z" fill="#A7A7A7"/>
<path d="M478.183 149.33C478.183 147.717 476.876 146.411 475.264 146.411C473.652 146.411 472.345 147.717 472.345 149.33C472.345 150.942 473.652 152.249 475.264 152.249C476.876 152.249 478.183 150.942 478.183 149.33Z" fill="#A7A7A7"/>
<line x1="149.189" y1="290.036" x2="149.189" y2="42.4869" stroke="#444444" stroke-width="0.58384" stroke-dasharray="1.75 1.75"/>
<line x1="39.4273" y1="290.035" x2="39.4273" y2="152.833" stroke="#444444" stroke-width="0.58384" stroke-dasharray="1.75 1.75"/>
<line x1="257.2" y1="290.035" x2="257.2" y2="152.833" stroke="#444444" stroke-width="0.58384" stroke-dasharray="1.75 1.75"/>
<line x1="257.2" y1="290.035" x2="257.2" y2="152.833" stroke="#444444" stroke-width="0.58384" stroke-dasharray="1.75 1.75"/>
<line x1="474.972" y1="290.619" x2="474.972" y2="153.416" stroke="#444444" stroke-width="0.58384" stroke-dasharray="1.75 1.75"/>
<line x1="366.961" y1="292.955" x2="366.961" y2="45.4061" stroke="#444444" stroke-width="0.58384" stroke-dasharray="1.75 1.75"/>
</g>
<path d="M126.76 309.222L128.454 303.269H129.274L128.799 305.583L126.977 311.8H126.163L126.76 309.222ZM125.008 303.269L126.356 309.105L126.76 311.8H125.952L123.883 303.269H125.008ZM131.465 309.099L132.784 303.269H133.915L131.852 311.8H131.043L131.465 309.099ZM129.397 303.269L131.043 309.222L131.641 311.8H130.827L129.069 305.583L128.588 303.269H129.397ZM137.448 311.917C137.006 311.917 136.606 311.843 136.247 311.695C135.891 311.542 135.584 311.329 135.327 311.056C135.073 310.782 134.877 310.458 134.741 310.083C134.604 309.708 134.536 309.298 134.536 308.853V308.607C134.536 308.091 134.612 307.632 134.764 307.23C134.917 306.823 135.124 306.48 135.385 306.198C135.647 305.917 135.944 305.704 136.276 305.56C136.608 305.415 136.952 305.343 137.307 305.343C137.76 305.343 138.151 305.421 138.479 305.577C138.811 305.734 139.083 305.952 139.293 306.234C139.504 306.511 139.661 306.839 139.762 307.218C139.864 307.593 139.915 308.003 139.915 308.448V308.935H135.18V308.05H138.831V307.968C138.815 307.687 138.756 307.413 138.655 307.148C138.557 306.882 138.401 306.663 138.186 306.491C137.971 306.32 137.678 306.234 137.307 306.234C137.061 306.234 136.834 306.286 136.627 306.392C136.42 306.493 136.243 306.646 136.094 306.849C135.946 307.052 135.831 307.3 135.749 307.593C135.667 307.886 135.625 308.224 135.625 308.607V308.853C135.625 309.154 135.667 309.437 135.749 309.702C135.834 309.964 135.958 310.195 136.118 310.394C136.282 310.593 136.479 310.749 136.709 310.863C136.944 310.976 137.209 311.032 137.506 311.032C137.889 311.032 138.213 310.954 138.479 310.798C138.745 310.642 138.977 310.433 139.176 310.171L139.833 310.693C139.696 310.9 139.522 311.097 139.311 311.284C139.1 311.472 138.84 311.624 138.532 311.741C138.227 311.859 137.866 311.917 137.448 311.917ZM141.174 302.8H142.264V310.57L142.17 311.8H141.174V302.8ZM146.547 308.577V308.7C146.547 309.161 146.493 309.589 146.383 309.984C146.274 310.374 146.114 310.714 145.903 311.003C145.692 311.292 145.434 311.517 145.129 311.677C144.825 311.837 144.475 311.917 144.081 311.917C143.678 311.917 143.325 311.849 143.02 311.712C142.719 311.572 142.465 311.37 142.258 311.109C142.051 310.847 141.885 310.531 141.76 310.159C141.639 309.788 141.555 309.37 141.508 308.906V308.366C141.555 307.898 141.639 307.478 141.76 307.107C141.885 306.736 142.051 306.419 142.258 306.157C142.465 305.892 142.719 305.691 143.02 305.554C143.321 305.413 143.67 305.343 144.069 305.343C144.467 305.343 144.821 305.421 145.129 305.577C145.438 305.73 145.696 305.948 145.903 306.234C146.114 306.519 146.274 306.861 146.383 307.259C146.493 307.654 146.547 308.093 146.547 308.577ZM145.458 308.7V308.577C145.458 308.261 145.428 307.964 145.37 307.687C145.311 307.406 145.217 307.159 145.088 306.948C144.959 306.734 144.79 306.566 144.579 306.445C144.368 306.32 144.108 306.257 143.799 306.257C143.526 306.257 143.288 306.304 143.084 306.398C142.885 306.491 142.715 306.618 142.575 306.779C142.434 306.935 142.319 307.115 142.229 307.318C142.143 307.517 142.079 307.724 142.036 307.939V309.351C142.098 309.624 142.2 309.888 142.34 310.142C142.485 310.392 142.676 310.597 142.915 310.757C143.157 310.917 143.456 310.997 143.811 310.997C144.104 310.997 144.354 310.939 144.561 310.822C144.772 310.7 144.942 310.534 145.071 310.323C145.204 310.113 145.301 309.868 145.364 309.591C145.426 309.314 145.458 309.017 145.458 308.7ZM151.61 310.118C151.61 309.962 151.575 309.818 151.504 309.685C151.438 309.548 151.299 309.425 151.088 309.316C150.881 309.202 150.569 309.105 150.151 309.023C149.799 308.948 149.481 308.861 149.196 308.759C148.915 308.657 148.674 308.534 148.475 308.39C148.28 308.245 148.129 308.075 148.024 307.88C147.918 307.685 147.866 307.456 147.866 307.195C147.866 306.945 147.92 306.708 148.03 306.486C148.143 306.263 148.301 306.066 148.504 305.894C148.711 305.722 148.959 305.587 149.249 305.49C149.538 305.392 149.86 305.343 150.215 305.343C150.723 305.343 151.157 305.433 151.516 305.613C151.875 305.792 152.151 306.032 152.342 306.333C152.534 306.63 152.629 306.96 152.629 307.323H151.545C151.545 307.148 151.493 306.978 151.387 306.814C151.286 306.646 151.135 306.507 150.936 306.398C150.741 306.288 150.5 306.234 150.215 306.234C149.915 306.234 149.67 306.281 149.483 306.374C149.299 306.464 149.165 306.579 149.079 306.72C148.997 306.861 148.956 307.009 148.956 307.165C148.956 307.282 148.975 307.388 149.014 307.482C149.057 307.572 149.131 307.656 149.237 307.734C149.342 307.808 149.491 307.878 149.682 307.945C149.874 308.011 150.118 308.077 150.415 308.144C150.934 308.261 151.362 308.402 151.698 308.566C152.034 308.73 152.284 308.931 152.448 309.169C152.612 309.407 152.694 309.697 152.694 310.036C152.694 310.314 152.635 310.568 152.518 310.798C152.405 311.029 152.239 311.228 152.02 311.396C151.805 311.56 151.547 311.689 151.247 311.782C150.95 311.872 150.616 311.917 150.245 311.917C149.686 311.917 149.213 311.818 148.827 311.618C148.44 311.419 148.147 311.161 147.948 310.845C147.749 310.529 147.649 310.195 147.649 309.843H148.739C148.754 310.14 148.84 310.376 148.997 310.552C149.153 310.724 149.344 310.847 149.571 310.921C149.797 310.991 150.022 311.027 150.245 311.027C150.542 311.027 150.79 310.988 150.989 310.909C151.192 310.831 151.346 310.724 151.452 310.587C151.557 310.45 151.61 310.294 151.61 310.118ZM155.295 305.46V311.8H154.206V305.46H155.295ZM154.124 303.779C154.124 303.603 154.176 303.454 154.282 303.333C154.391 303.212 154.551 303.152 154.762 303.152C154.969 303.152 155.127 303.212 155.237 303.333C155.35 303.454 155.407 303.603 155.407 303.779C155.407 303.947 155.35 304.091 155.237 304.212C155.127 304.329 154.969 304.388 154.762 304.388C154.551 304.388 154.391 304.329 154.282 304.212C154.176 304.091 154.124 303.947 154.124 303.779ZM159.69 305.46V306.292H156.262V305.46H159.69ZM157.422 303.919H158.506V310.23C158.506 310.445 158.54 310.607 158.606 310.716C158.672 310.825 158.758 310.898 158.864 310.933C158.969 310.968 159.083 310.986 159.204 310.986C159.293 310.986 159.387 310.978 159.485 310.962C159.586 310.943 159.663 310.927 159.713 310.915L159.719 311.8C159.633 311.827 159.52 311.853 159.379 311.876C159.243 311.904 159.077 311.917 158.881 311.917C158.616 311.917 158.372 311.865 158.149 311.759C157.926 311.654 157.749 311.478 157.616 311.232C157.487 310.982 157.422 310.646 157.422 310.224V303.919ZM163.592 311.917C163.151 311.917 162.75 311.843 162.391 311.695C162.036 311.542 161.729 311.329 161.471 311.056C161.217 310.782 161.022 310.458 160.885 310.083C160.749 309.708 160.68 309.298 160.68 308.853V308.607C160.68 308.091 160.756 307.632 160.909 307.23C161.061 306.823 161.268 306.48 161.53 306.198C161.792 305.917 162.088 305.704 162.42 305.56C162.752 305.415 163.096 305.343 163.452 305.343C163.905 305.343 164.295 305.421 164.624 305.577C164.956 305.734 165.227 305.952 165.438 306.234C165.649 306.511 165.805 306.839 165.907 307.218C166.008 307.593 166.059 308.003 166.059 308.448V308.935H161.325V308.05H164.975V307.968C164.959 307.687 164.901 307.413 164.799 307.148C164.702 306.882 164.545 306.663 164.331 306.491C164.116 306.32 163.823 306.234 163.452 306.234C163.206 306.234 162.979 306.286 162.772 306.392C162.565 306.493 162.387 306.646 162.239 306.849C162.09 307.052 161.975 307.3 161.893 307.593C161.811 307.886 161.77 308.224 161.77 308.607V308.853C161.77 309.154 161.811 309.437 161.893 309.702C161.979 309.964 162.102 310.195 162.262 310.394C162.426 310.593 162.624 310.749 162.854 310.863C163.088 310.976 163.354 311.032 163.651 311.032C164.034 311.032 164.358 310.954 164.624 310.798C164.889 310.642 165.122 310.433 165.321 310.171L165.977 310.693C165.84 310.9 165.667 311.097 165.456 311.284C165.245 311.472 164.985 311.624 164.676 311.741C164.372 311.859 164.01 311.917 163.592 311.917ZM171.016 310.118C171.016 309.962 170.981 309.818 170.911 309.685C170.844 309.548 170.706 309.425 170.495 309.316C170.288 309.202 169.975 309.105 169.557 309.023C169.206 308.948 168.887 308.861 168.602 308.759C168.321 308.657 168.081 308.534 167.881 308.39C167.686 308.245 167.536 308.075 167.43 307.88C167.325 307.685 167.272 307.456 167.272 307.195C167.272 306.945 167.327 306.708 167.436 306.486C167.549 306.263 167.708 306.066 167.911 305.894C168.118 305.722 168.366 305.587 168.655 305.49C168.944 305.392 169.266 305.343 169.622 305.343C170.129 305.343 170.563 305.433 170.922 305.613C171.282 305.792 171.557 306.032 171.749 306.333C171.94 306.63 172.036 306.96 172.036 307.323H170.952C170.952 307.148 170.899 306.978 170.793 306.814C170.692 306.646 170.542 306.507 170.342 306.398C170.147 306.288 169.907 306.234 169.622 306.234C169.321 306.234 169.077 306.281 168.889 306.374C168.706 306.464 168.571 306.579 168.485 306.72C168.403 306.861 168.362 307.009 168.362 307.165C168.362 307.282 168.381 307.388 168.42 307.482C168.463 307.572 168.538 307.656 168.643 307.734C168.749 307.808 168.897 307.878 169.088 307.945C169.28 308.011 169.524 308.077 169.821 308.144C170.34 308.261 170.768 308.402 171.104 308.566C171.44 308.73 171.69 308.931 171.854 309.169C172.018 309.407 172.1 309.697 172.1 310.036C172.1 310.314 172.042 310.568 171.924 310.798C171.811 311.029 171.645 311.228 171.426 311.396C171.211 311.56 170.954 311.689 170.653 311.782C170.356 311.872 170.022 311.917 169.651 311.917C169.092 311.917 168.62 311.818 168.233 311.618C167.846 311.419 167.553 311.161 167.354 310.845C167.155 310.529 167.055 310.195 167.055 309.843H168.145C168.161 310.14 168.247 310.376 168.403 310.552C168.559 310.724 168.75 310.847 168.977 310.921C169.204 310.991 169.428 311.027 169.651 311.027C169.948 311.027 170.196 310.988 170.395 310.909C170.598 310.831 170.752 310.724 170.858 310.587C170.963 310.45 171.016 310.294 171.016 310.118ZM122.377 324.88V325.8H117.86V324.88H122.377ZM118.088 317.269V325.8H116.958V317.269H118.088ZM121.78 320.937V321.857H117.86V320.937H121.78ZM122.319 317.269V318.195H117.86V317.269H122.319ZM125.87 321.728V322.618H123.01V321.728H125.87ZM129.467 325.027C129.725 325.027 129.963 324.974 130.182 324.868C130.401 324.763 130.581 324.618 130.721 324.435C130.862 324.247 130.942 324.034 130.961 323.796H131.993C131.973 324.171 131.846 324.521 131.612 324.845C131.381 325.165 131.079 325.425 130.704 325.624C130.329 325.82 129.917 325.917 129.467 325.917C128.991 325.917 128.575 325.833 128.219 325.665C127.868 325.497 127.575 325.267 127.34 324.974C127.11 324.681 126.936 324.345 126.819 323.966C126.706 323.583 126.649 323.179 126.649 322.753V322.507C126.649 322.081 126.706 321.679 126.819 321.3C126.936 320.917 127.11 320.579 127.34 320.286C127.575 319.993 127.868 319.763 128.219 319.595C128.575 319.427 128.991 319.343 129.467 319.343C129.963 319.343 130.397 319.445 130.768 319.648C131.139 319.847 131.43 320.12 131.641 320.468C131.856 320.812 131.973 321.202 131.993 321.64H130.961C130.942 321.378 130.868 321.142 130.739 320.931C130.614 320.72 130.442 320.552 130.223 320.427C130.008 320.298 129.756 320.234 129.467 320.234C129.135 320.234 128.856 320.3 128.629 320.433C128.407 320.562 128.229 320.738 128.096 320.96C127.967 321.179 127.874 321.423 127.815 321.693C127.76 321.958 127.733 322.23 127.733 322.507V322.753C127.733 323.031 127.76 323.304 127.815 323.573C127.87 323.843 127.961 324.087 128.09 324.306C128.223 324.525 128.401 324.7 128.624 324.833C128.85 324.962 129.131 325.027 129.467 325.027ZM132.924 322.7V322.566C132.924 322.109 132.991 321.685 133.124 321.294C133.256 320.9 133.448 320.558 133.698 320.269C133.948 319.976 134.25 319.749 134.606 319.589C134.961 319.425 135.36 319.343 135.801 319.343C136.247 319.343 136.647 319.425 137.002 319.589C137.362 319.749 137.667 319.976 137.917 320.269C138.17 320.558 138.364 320.9 138.497 321.294C138.629 321.685 138.696 322.109 138.696 322.566V322.7C138.696 323.157 138.629 323.581 138.497 323.972C138.364 324.363 138.17 324.704 137.917 324.997C137.667 325.286 137.364 325.513 137.008 325.677C136.657 325.837 136.258 325.917 135.813 325.917C135.368 325.917 134.967 325.837 134.612 325.677C134.256 325.513 133.952 325.286 133.698 324.997C133.448 324.704 133.256 324.363 133.124 323.972C132.991 323.581 132.924 323.157 132.924 322.7ZM134.008 322.566V322.7C134.008 323.017 134.045 323.316 134.12 323.597C134.194 323.874 134.305 324.12 134.454 324.335C134.606 324.55 134.795 324.72 135.022 324.845C135.249 324.966 135.512 325.027 135.813 325.027C136.11 325.027 136.37 324.966 136.592 324.845C136.819 324.72 137.006 324.55 137.155 324.335C137.303 324.12 137.415 323.874 137.489 323.597C137.567 323.316 137.606 323.017 137.606 322.7V322.566C137.606 322.253 137.567 321.958 137.489 321.681C137.415 321.4 137.301 321.152 137.149 320.937C137 320.718 136.813 320.546 136.586 320.421C136.364 320.296 136.102 320.234 135.801 320.234C135.504 320.234 135.243 320.296 135.016 320.421C134.793 320.546 134.606 320.718 134.454 320.937C134.305 321.152 134.194 321.4 134.12 321.681C134.045 321.958 134.008 322.253 134.008 322.566ZM141.133 320.72V325.8H140.043V319.46H141.075L141.133 320.72ZM140.911 322.39L140.407 322.372C140.411 321.939 140.467 321.538 140.577 321.171C140.686 320.8 140.848 320.478 141.063 320.204C141.278 319.931 141.545 319.72 141.866 319.572C142.186 319.419 142.557 319.343 142.979 319.343C143.276 319.343 143.549 319.386 143.799 319.472C144.049 319.554 144.266 319.685 144.45 319.865C144.633 320.044 144.776 320.275 144.877 320.556C144.979 320.837 145.03 321.177 145.03 321.575V325.8H143.946V321.628C143.946 321.296 143.889 321.031 143.776 320.831C143.667 320.632 143.51 320.488 143.307 320.398C143.104 320.304 142.866 320.257 142.592 320.257C142.272 320.257 142.004 320.314 141.79 320.427C141.575 320.54 141.403 320.697 141.274 320.896C141.145 321.095 141.051 321.323 140.993 321.581C140.938 321.835 140.911 322.105 140.911 322.39ZM145.018 321.792L144.292 322.015C144.295 321.667 144.352 321.333 144.461 321.013C144.575 320.693 144.737 320.407 144.948 320.157C145.163 319.907 145.426 319.71 145.739 319.566C146.051 319.417 146.409 319.343 146.811 319.343C147.151 319.343 147.452 319.388 147.713 319.478C147.979 319.568 148.202 319.706 148.381 319.894C148.565 320.077 148.704 320.314 148.797 320.603C148.891 320.892 148.938 321.236 148.938 321.634V325.8H147.848V321.622C147.848 321.267 147.792 320.991 147.678 320.796C147.569 320.597 147.413 320.458 147.209 320.38C147.01 320.298 146.772 320.257 146.495 320.257C146.256 320.257 146.045 320.298 145.862 320.38C145.678 320.462 145.524 320.575 145.399 320.72C145.274 320.861 145.178 321.023 145.112 321.206C145.049 321.39 145.018 321.585 145.018 321.792ZM151.657 320.72V325.8H150.567V319.46H151.598L151.657 320.72ZM151.434 322.39L150.93 322.372C150.934 321.939 150.991 321.538 151.1 321.171C151.209 320.8 151.372 320.478 151.586 320.204C151.801 319.931 152.069 319.72 152.389 319.572C152.709 319.419 153.081 319.343 153.502 319.343C153.799 319.343 154.073 319.386 154.323 319.472C154.573 319.554 154.79 319.685 154.973 319.865C155.157 320.044 155.299 320.275 155.401 320.556C155.502 320.837 155.553 321.177 155.553 321.575V325.8H154.469V321.628C154.469 321.296 154.413 321.031 154.299 320.831C154.19 320.632 154.034 320.488 153.831 320.398C153.627 320.304 153.389 320.257 153.116 320.257C152.795 320.257 152.528 320.314 152.313 320.427C152.098 320.54 151.926 320.697 151.797 320.896C151.668 321.095 151.575 321.323 151.516 321.581C151.461 321.835 151.434 322.105 151.434 322.39ZM155.542 321.792L154.815 322.015C154.819 321.667 154.875 321.333 154.985 321.013C155.098 320.693 155.26 320.407 155.471 320.157C155.686 319.907 155.95 319.71 156.262 319.566C156.575 319.417 156.932 319.343 157.334 319.343C157.674 319.343 157.975 319.388 158.237 319.478C158.502 319.568 158.725 319.706 158.905 319.894C159.088 320.077 159.227 320.314 159.321 320.603C159.415 320.892 159.461 321.236 159.461 321.634V325.8H158.372V321.622C158.372 321.267 158.315 320.991 158.202 320.796C158.092 320.597 157.936 320.458 157.733 320.38C157.534 320.298 157.295 320.257 157.018 320.257C156.78 320.257 156.569 320.298 156.385 320.38C156.202 320.462 156.047 320.575 155.922 320.72C155.797 320.861 155.702 321.023 155.635 321.206C155.573 321.39 155.542 321.585 155.542 321.792ZM163.733 325.917C163.292 325.917 162.891 325.843 162.532 325.695C162.176 325.542 161.87 325.329 161.612 325.056C161.358 324.782 161.163 324.458 161.026 324.083C160.889 323.708 160.821 323.298 160.821 322.853V322.607C160.821 322.091 160.897 321.632 161.049 321.23C161.202 320.823 161.409 320.48 161.67 320.198C161.932 319.917 162.229 319.704 162.561 319.56C162.893 319.415 163.237 319.343 163.592 319.343C164.045 319.343 164.436 319.421 164.764 319.577C165.096 319.734 165.368 319.952 165.579 320.234C165.79 320.511 165.946 320.839 166.047 321.218C166.149 321.593 166.2 322.003 166.2 322.448V322.935H161.465V322.05H165.116V321.968C165.1 321.687 165.042 321.413 164.94 321.148C164.842 320.882 164.686 320.663 164.471 320.491C164.256 320.32 163.963 320.234 163.592 320.234C163.346 320.234 163.12 320.286 162.913 320.392C162.706 320.493 162.528 320.646 162.379 320.849C162.231 321.052 162.116 321.3 162.034 321.593C161.952 321.886 161.911 322.224 161.911 322.607V322.853C161.911 323.154 161.952 323.437 162.034 323.702C162.12 323.964 162.243 324.195 162.403 324.394C162.567 324.593 162.764 324.749 162.995 324.863C163.229 324.976 163.495 325.032 163.792 325.032C164.174 325.032 164.499 324.954 164.764 324.798C165.03 324.642 165.262 324.433 165.461 324.171L166.118 324.693C165.981 324.9 165.807 325.097 165.596 325.284C165.385 325.472 165.125 325.624 164.817 325.741C164.512 325.859 164.151 325.917 163.733 325.917ZM168.549 320.456V325.8H167.465V319.46H168.52L168.549 320.456ZM170.53 319.425L170.524 320.433C170.434 320.413 170.348 320.402 170.266 320.398C170.188 320.39 170.098 320.386 169.997 320.386C169.747 320.386 169.526 320.425 169.334 320.503C169.143 320.581 168.981 320.691 168.848 320.831C168.715 320.972 168.61 321.14 168.532 321.335C168.458 321.527 168.409 321.738 168.385 321.968L168.081 322.144C168.081 321.761 168.118 321.402 168.192 321.066C168.27 320.73 168.389 320.433 168.549 320.175C168.709 319.913 168.913 319.71 169.159 319.566C169.409 319.417 169.706 319.343 170.049 319.343C170.127 319.343 170.217 319.353 170.319 319.372C170.42 319.388 170.491 319.406 170.53 319.425ZM173.952 325.027C174.209 325.027 174.448 324.974 174.667 324.868C174.885 324.763 175.065 324.618 175.206 324.435C175.346 324.247 175.426 324.034 175.446 323.796H176.477C176.458 324.171 176.331 324.521 176.096 324.845C175.866 325.165 175.563 325.425 175.188 325.624C174.813 325.82 174.401 325.917 173.952 325.917C173.475 325.917 173.059 325.833 172.704 325.665C172.352 325.497 172.059 325.267 171.825 324.974C171.594 324.681 171.42 324.345 171.303 323.966C171.19 323.583 171.133 323.179 171.133 322.753V322.507C171.133 322.081 171.19 321.679 171.303 321.3C171.42 320.917 171.594 320.579 171.825 320.286C172.059 319.993 172.352 319.763 172.704 319.595C173.059 319.427 173.475 319.343 173.952 319.343C174.448 319.343 174.881 319.445 175.252 319.648C175.624 319.847 175.915 320.12 176.125 320.468C176.34 320.812 176.458 321.202 176.477 321.64H175.446C175.426 321.378 175.352 321.142 175.223 320.931C175.098 320.72 174.926 320.552 174.708 320.427C174.493 320.298 174.241 320.234 173.952 320.234C173.62 320.234 173.34 320.3 173.114 320.433C172.891 320.562 172.713 320.738 172.581 320.96C172.452 321.179 172.358 321.423 172.299 321.693C172.245 321.958 172.217 322.23 172.217 322.507V322.753C172.217 323.031 172.245 323.304 172.299 323.573C172.354 323.843 172.446 324.087 172.575 324.306C172.708 324.525 172.885 324.7 173.108 324.833C173.334 324.962 173.616 325.027 173.952 325.027ZM180.327 325.917C179.885 325.917 179.485 325.843 179.125 325.695C178.77 325.542 178.463 325.329 178.206 325.056C177.952 324.782 177.756 324.458 177.62 324.083C177.483 323.708 177.415 323.298 177.415 322.853V322.607C177.415 322.091 177.491 321.632 177.643 321.23C177.795 320.823 178.002 320.48 178.264 320.198C178.526 319.917 178.823 319.704 179.155 319.56C179.487 319.415 179.831 319.343 180.186 319.343C180.639 319.343 181.03 319.421 181.358 319.577C181.69 319.734 181.961 319.952 182.172 320.234C182.383 320.511 182.54 320.839 182.641 321.218C182.743 321.593 182.793 322.003 182.793 322.448V322.935H178.059V322.05H181.709V321.968C181.694 321.687 181.635 321.413 181.534 321.148C181.436 320.882 181.28 320.663 181.065 320.491C180.85 320.32 180.557 320.234 180.186 320.234C179.94 320.234 179.713 320.286 179.506 320.392C179.299 320.493 179.122 320.646 178.973 320.849C178.825 321.052 178.709 321.3 178.627 321.593C178.545 321.886 178.504 322.224 178.504 322.607V322.853C178.504 323.154 178.545 323.437 178.627 323.702C178.713 323.964 178.836 324.195 178.997 324.394C179.161 324.593 179.358 324.749 179.588 324.863C179.823 324.976 180.088 325.032 180.385 325.032C180.768 325.032 181.092 324.954 181.358 324.798C181.624 324.642 181.856 324.433 182.055 324.171L182.711 324.693C182.575 324.9 182.401 325.097 182.19 325.284C181.979 325.472 181.719 325.624 181.411 325.741C181.106 325.859 180.745 325.917 180.327 325.917Z" fill="#A7A7A7"/>
<path d="M17.1602 309.222L18.8535 303.269H19.6738L19.1992 305.583L17.377 311.8H16.5625L17.1602 309.222ZM15.4082 303.269L16.7559 309.105L17.1602 311.8H16.3516L14.2832 303.269H15.4082ZM21.8652 309.099L23.1836 303.269H24.3145L22.252 311.8H21.4434L21.8652 309.099ZM19.7969 303.269L21.4434 309.222L22.041 311.8H21.2266L19.4688 305.583L18.9883 303.269H19.7969ZM27.8477 311.917C27.4062 311.917 27.0059 311.843 26.6465 311.695C26.291 311.542 25.9844 311.329 25.7266 311.056C25.4727 310.782 25.2773 310.458 25.1406 310.083C25.0039 309.708 24.9355 309.298 24.9355 308.853V308.607C24.9355 308.091 25.0117 307.632 25.1641 307.23C25.3164 306.823 25.5234 306.48 25.7852 306.198C26.0469 305.917 26.3438 305.704 26.6758 305.56C27.0078 305.415 27.3516 305.343 27.707 305.343C28.1602 305.343 28.5508 305.421 28.8789 305.577C29.2109 305.734 29.4824 305.952 29.6934 306.234C29.9043 306.511 30.0605 306.839 30.1621 307.218C30.2637 307.593 30.3145 308.003 30.3145 308.448V308.935H25.5801V308.05H29.2305V307.968C29.2148 307.687 29.1562 307.413 29.0547 307.148C28.957 306.882 28.8008 306.663 28.5859 306.491C28.3711 306.32 28.0781 306.234 27.707 306.234C27.4609 306.234 27.2344 306.286 27.0273 306.392C26.8203 306.493 26.6426 306.646 26.4941 306.849C26.3457 307.052 26.2305 307.3 26.1484 307.593C26.0664 307.886 26.0254 308.224 26.0254 308.607V308.853C26.0254 309.154 26.0664 309.437 26.1484 309.702C26.2344 309.964 26.3574 310.195 26.5176 310.394C26.6816 310.593 26.8789 310.749 27.1094 310.863C27.3438 310.976 27.6094 311.032 27.9062 311.032C28.2891 311.032 28.6133 310.954 28.8789 310.798C29.1445 310.642 29.377 310.433 29.5762 310.171L30.2324 310.693C30.0957 310.9 29.9219 311.097 29.7109 311.284C29.5 311.472 29.2402 311.624 28.9316 311.741C28.627 311.859 28.2656 311.917 27.8477 311.917ZM31.5742 302.8H32.6641V310.57L32.5703 311.8H31.5742V302.8ZM36.9473 308.577V308.7C36.9473 309.161 36.8926 309.589 36.7832 309.984C36.6738 310.374 36.5137 310.714 36.3027 311.003C36.0918 311.292 35.834 311.517 35.5293 311.677C35.2246 311.837 34.875 311.917 34.4805 311.917C34.0781 311.917 33.7246 311.849 33.4199 311.712C33.1191 311.572 32.8652 311.37 32.6582 311.109C32.4512 310.847 32.2852 310.531 32.1602 310.159C32.0391 309.788 31.9551 309.37 31.9082 308.906V308.366C31.9551 307.898 32.0391 307.478 32.1602 307.107C32.2852 306.736 32.4512 306.419 32.6582 306.157C32.8652 305.892 33.1191 305.691 33.4199 305.554C33.7207 305.413 34.0703 305.343 34.4688 305.343C34.8672 305.343 35.2207 305.421 35.5293 305.577C35.8379 305.73 36.0957 305.948 36.3027 306.234C36.5137 306.519 36.6738 306.861 36.7832 307.259C36.8926 307.654 36.9473 308.093 36.9473 308.577ZM35.8574 308.7V308.577C35.8574 308.261 35.8281 307.964 35.7695 307.687C35.7109 307.406 35.6172 307.159 35.4883 306.948C35.3594 306.734 35.1895 306.566 34.9785 306.445C34.7676 306.32 34.5078 306.257 34.1992 306.257C33.9258 306.257 33.6875 306.304 33.4844 306.398C33.2852 306.491 33.1152 306.618 32.9746 306.779C32.834 306.935 32.7188 307.115 32.6289 307.318C32.543 307.517 32.4785 307.724 32.4355 307.939V309.351C32.498 309.624 32.5996 309.888 32.7402 310.142C32.8848 310.392 33.0762 310.597 33.3145 310.757C33.5566 310.917 33.8555 310.997 34.2109 310.997C34.5039 310.997 34.7539 310.939 34.9609 310.822C35.1719 310.7 35.3418 310.534 35.4707 310.323C35.6035 310.113 35.7012 309.868 35.7637 309.591C35.8262 309.314 35.8574 309.017 35.8574 308.7ZM42.0098 310.118C42.0098 309.962 41.9746 309.818 41.9043 309.685C41.8379 309.548 41.6992 309.425 41.4883 309.316C41.2812 309.202 40.9688 309.105 40.5508 309.023C40.1992 308.948 39.8809 308.861 39.5957 308.759C39.3145 308.657 39.0742 308.534 38.875 308.39C38.6797 308.245 38.5293 308.075 38.4238 307.88C38.3184 307.685 38.2656 307.456 38.2656 307.195C38.2656 306.945 38.3203 306.708 38.4297 306.486C38.543 306.263 38.7012 306.066 38.9043 305.894C39.1113 305.722 39.3594 305.587 39.6484 305.49C39.9375 305.392 40.2598 305.343 40.6152 305.343C41.123 305.343 41.5566 305.433 41.916 305.613C42.2754 305.792 42.5508 306.032 42.7422 306.333C42.9336 306.63 43.0293 306.96 43.0293 307.323H41.9453C41.9453 307.148 41.8926 306.978 41.7871 306.814C41.6855 306.646 41.5352 306.507 41.3359 306.398C41.1406 306.288 40.9004 306.234 40.6152 306.234C40.3145 306.234 40.0703 306.281 39.8828 306.374C39.6992 306.464 39.5645 306.579 39.4785 306.72C39.3965 306.861 39.3555 307.009 39.3555 307.165C39.3555 307.282 39.375 307.388 39.4141 307.482C39.457 307.572 39.5312 307.656 39.6367 307.734C39.7422 307.808 39.8906 307.878 40.082 307.945C40.2734 308.011 40.5176 308.077 40.8145 308.144C41.334 308.261 41.7617 308.402 42.0977 308.566C42.4336 308.73 42.6836 308.931 42.8477 309.169C43.0117 309.407 43.0938 309.697 43.0938 310.036C43.0938 310.314 43.0352 310.568 42.918 310.798C42.8047 311.029 42.6387 311.228 42.4199 311.396C42.2051 311.56 41.9473 311.689 41.6465 311.782C41.3496 311.872 41.0156 311.917 40.6445 311.917C40.0859 311.917 39.6133 311.818 39.2266 311.618C38.8398 311.419 38.5469 311.161 38.3477 310.845C38.1484 310.529 38.0488 310.195 38.0488 309.843H39.1387C39.1543 310.14 39.2402 310.376 39.3965 310.552C39.5527 310.724 39.7441 310.847 39.9707 310.921C40.1973 310.991 40.4219 311.027 40.6445 311.027C40.9414 311.027 41.1895 310.988 41.3887 310.909C41.5918 310.831 41.7461 310.724 41.8516 310.587C41.957 310.45 42.0098 310.294 42.0098 310.118ZM45.6953 305.46V311.8H44.6055V305.46H45.6953ZM44.5234 303.779C44.5234 303.603 44.5762 303.454 44.6816 303.333C44.791 303.212 44.9512 303.152 45.1621 303.152C45.3691 303.152 45.5273 303.212 45.6367 303.333C45.75 303.454 45.8066 303.603 45.8066 303.779C45.8066 303.947 45.75 304.091 45.6367 304.212C45.5273 304.329 45.3691 304.388 45.1621 304.388C44.9512 304.388 44.791 304.329 44.6816 304.212C44.5762 304.091 44.5234 303.947 44.5234 303.779ZM50.0898 305.46V306.292H46.6621V305.46H50.0898ZM47.8223 303.919H48.9062V310.23C48.9062 310.445 48.9395 310.607 49.0059 310.716C49.0723 310.825 49.1582 310.898 49.2637 310.933C49.3691 310.968 49.4824 310.986 49.6035 310.986C49.6934 310.986 49.7871 310.978 49.8848 310.962C49.9863 310.943 50.0625 310.927 50.1133 310.915L50.1191 311.8C50.0332 311.827 49.9199 311.853 49.7793 311.876C49.6426 311.904 49.4766 311.917 49.2812 311.917C49.0156 311.917 48.7715 311.865 48.5488 311.759C48.3262 311.654 48.1484 311.478 48.0156 311.232C47.8867 310.982 47.8223 310.646 47.8223 310.224V303.919ZM53.9922 311.917C53.5508 311.917 53.1504 311.843 52.791 311.695C52.4355 311.542 52.1289 311.329 51.8711 311.056C51.6172 310.782 51.4219 310.458 51.2852 310.083C51.1484 309.708 51.0801 309.298 51.0801 308.853V308.607C51.0801 308.091 51.1562 307.632 51.3086 307.23C51.4609 306.823 51.668 306.48 51.9297 306.198C52.1914 305.917 52.4883 305.704 52.8203 305.56C53.1523 305.415 53.4961 305.343 53.8516 305.343C54.3047 305.343 54.6953 305.421 55.0234 305.577C55.3555 305.734 55.627 305.952 55.8379 306.234C56.0488 306.511 56.2051 306.839 56.3066 307.218C56.4082 307.593 56.459 308.003 56.459 308.448V308.935H51.7246V308.05H55.375V307.968C55.3594 307.687 55.3008 307.413 55.1992 307.148C55.1016 306.882 54.9453 306.663 54.7305 306.491C54.5156 306.32 54.2227 306.234 53.8516 306.234C53.6055 306.234 53.3789 306.286 53.1719 306.392C52.9648 306.493 52.7871 306.646 52.6387 306.849C52.4902 307.052 52.375 307.3 52.293 307.593C52.2109 307.886 52.1699 308.224 52.1699 308.607V308.853C52.1699 309.154 52.2109 309.437 52.293 309.702C52.3789 309.964 52.502 310.195 52.6621 310.394C52.8262 310.593 53.0234 310.749 53.2539 310.863C53.4883 310.976 53.7539 311.032 54.0508 311.032C54.4336 311.032 54.7578 310.954 55.0234 310.798C55.2891 310.642 55.5215 310.433 55.7207 310.171L56.377 310.693C56.2402 310.9 56.0664 311.097 55.8555 311.284C55.6445 311.472 55.3848 311.624 55.0762 311.741C54.7715 311.859 54.4102 311.917 53.9922 311.917ZM61.416 310.118C61.416 309.962 61.3809 309.818 61.3105 309.685C61.2441 309.548 61.1055 309.425 60.8945 309.316C60.6875 309.202 60.375 309.105 59.957 309.023C59.6055 308.948 59.2871 308.861 59.002 308.759C58.7207 308.657 58.4805 308.534 58.2812 308.39C58.0859 308.245 57.9355 308.075 57.8301 307.88C57.7246 307.685 57.6719 307.456 57.6719 307.195C57.6719 306.945 57.7266 306.708 57.8359 306.486C57.9492 306.263 58.1074 306.066 58.3105 305.894C58.5176 305.722 58.7656 305.587 59.0547 305.49C59.3438 305.392 59.666 305.343 60.0215 305.343C60.5293 305.343 60.9629 305.433 61.3223 305.613C61.6816 305.792 61.957 306.032 62.1484 306.333C62.3398 306.63 62.4355 306.96 62.4355 307.323H61.3516C61.3516 307.148 61.2988 306.978 61.1934 306.814C61.0918 306.646 60.9414 306.507 60.7422 306.398C60.5469 306.288 60.3066 306.234 60.0215 306.234C59.7207 306.234 59.4766 306.281 59.2891 306.374C59.1055 306.464 58.9707 306.579 58.8848 306.72C58.8027 306.861 58.7617 307.009 58.7617 307.165C58.7617 307.282 58.7812 307.388 58.8203 307.482C58.8633 307.572 58.9375 307.656 59.043 307.734C59.1484 307.808 59.2969 307.878 59.4883 307.945C59.6797 308.011 59.9238 308.077 60.2207 308.144C60.7402 308.261 61.168 308.402 61.5039 308.566C61.8398 308.73 62.0898 308.931 62.2539 309.169C62.418 309.407 62.5 309.697 62.5 310.036C62.5 310.314 62.4414 310.568 62.3242 310.798C62.2109 311.029 62.0449 311.228 61.8262 311.396C61.6113 311.56 61.3535 311.689 61.0527 311.782C60.7559 311.872 60.4219 311.917 60.0508 311.917C59.4922 311.917 59.0195 311.818 58.6328 311.618C58.2461 311.419 57.9531 311.161 57.7539 310.845C57.5547 310.529 57.4551 310.195 57.4551 309.843H58.5449C58.5605 310.14 58.6465 310.376 58.8027 310.552C58.959 310.724 59.1504 310.847 59.377 310.921C59.6035 310.991 59.8281 311.027 60.0508 311.027C60.3477 311.027 60.5957 310.988 60.7949 310.909C60.998 310.831 61.1523 310.724 61.2578 310.587C61.3633 310.45 61.416 310.294 61.416 310.118ZM6.29688 317.269V325.8H5.16602V317.269H6.29688ZM9.27344 320.814V325.8H8.18945V319.46H9.21484L9.27344 320.814ZM9.01562 322.39L8.56445 322.372C8.56836 321.939 8.63281 321.538 8.75781 321.171C8.88281 320.8 9.05859 320.478 9.28516 320.204C9.51172 319.931 9.78125 319.72 10.0938 319.572C10.4102 319.419 10.7598 319.343 11.1426 319.343C11.4551 319.343 11.7363 319.386 11.9863 319.472C12.2363 319.554 12.4492 319.687 12.625 319.87C12.8047 320.054 12.9414 320.292 13.0352 320.585C13.1289 320.874 13.1758 321.228 13.1758 321.646V325.8H12.0859V321.634C12.0859 321.302 12.0371 321.036 11.9395 320.837C11.8418 320.634 11.6992 320.488 11.5117 320.398C11.3242 320.304 11.0938 320.257 10.8203 320.257C10.5508 320.257 10.3047 320.314 10.082 320.427C9.86328 320.54 9.67383 320.697 9.51367 320.896C9.35742 321.095 9.23438 321.323 9.14453 321.581C9.05859 321.835 9.01562 322.105 9.01562 322.39ZM18.5137 324.118C18.5137 323.962 18.4785 323.818 18.4082 323.685C18.3418 323.548 18.2031 323.425 17.9922 323.316C17.7852 323.202 17.4727 323.105 17.0547 323.023C16.7031 322.948 16.3848 322.861 16.0996 322.759C15.8184 322.657 15.5781 322.534 15.3789 322.39C15.1836 322.245 15.0332 322.075 14.9277 321.88C14.8223 321.685 14.7695 321.456 14.7695 321.195C14.7695 320.945 14.8242 320.708 14.9336 320.486C15.0469 320.263 15.2051 320.066 15.4082 319.894C15.6152 319.722 15.8633 319.587 16.1523 319.49C16.4414 319.392 16.7637 319.343 17.1191 319.343C17.627 319.343 18.0605 319.433 18.4199 319.613C18.7793 319.792 19.0547 320.032 19.2461 320.333C19.4375 320.63 19.5332 320.96 19.5332 321.323H18.4492C18.4492 321.148 18.3965 320.978 18.291 320.814C18.1895 320.646 18.0391 320.507 17.8398 320.398C17.6445 320.288 17.4043 320.234 17.1191 320.234C16.8184 320.234 16.5742 320.281 16.3867 320.374C16.2031 320.464 16.0684 320.579 15.9824 320.72C15.9004 320.861 15.8594 321.009 15.8594 321.165C15.8594 321.282 15.8789 321.388 15.918 321.482C15.9609 321.572 16.0352 321.656 16.1406 321.734C16.2461 321.808 16.3945 321.878 16.5859 321.945C16.7773 322.011 17.0215 322.077 17.3184 322.144C17.8379 322.261 18.2656 322.402 18.6016 322.566C18.9375 322.73 19.1875 322.931 19.3516 323.169C19.5156 323.407 19.5977 323.697 19.5977 324.036C19.5977 324.314 19.5391 324.568 19.4219 324.798C19.3086 325.029 19.1426 325.228 18.9238 325.396C18.709 325.56 18.4512 325.689 18.1504 325.782C17.8535 325.872 17.5195 325.917 17.1484 325.917C16.5898 325.917 16.1172 325.818 15.7305 325.618C15.3438 325.419 15.0508 325.161 14.8516 324.845C14.6523 324.529 14.5527 324.195 14.5527 323.843H15.6426C15.6582 324.14 15.7441 324.376 15.9004 324.552C16.0566 324.724 16.248 324.847 16.4746 324.921C16.7012 324.991 16.9258 325.027 17.1484 325.027C17.4453 325.027 17.6934 324.988 17.8926 324.909C18.0957 324.831 18.25 324.724 18.3555 324.587C18.4609 324.45 18.5137 324.294 18.5137 324.118ZM23.6758 319.46V320.292H20.248V319.46H23.6758ZM21.4082 317.919H22.4922V324.23C22.4922 324.445 22.5254 324.607 22.5918 324.716C22.6582 324.825 22.7441 324.898 22.8496 324.933C22.9551 324.968 23.0684 324.986 23.1895 324.986C23.2793 324.986 23.373 324.978 23.4707 324.962C23.5723 324.943 23.6484 324.927 23.6992 324.915L23.7051 325.8C23.6191 325.827 23.5059 325.853 23.3652 325.876C23.2285 325.904 23.0625 325.917 22.8672 325.917C22.6016 325.917 22.3574 325.865 22.1348 325.759C21.9121 325.654 21.7344 325.478 21.6016 325.232C21.4727 324.982 21.4082 324.646 21.4082 324.224V317.919ZM26.125 319.46V325.8H25.0352V319.46H26.125ZM24.9531 317.779C24.9531 317.603 25.0059 317.454 25.1113 317.333C25.2207 317.212 25.3809 317.152 25.5918 317.152C25.7988 317.152 25.957 317.212 26.0664 317.333C26.1797 317.454 26.2363 317.603 26.2363 317.779C26.2363 317.947 26.1797 318.091 26.0664 318.212C25.957 318.329 25.7988 318.388 25.5918 318.388C25.3809 318.388 25.2207 318.329 25.1113 318.212C25.0059 318.091 24.9531 317.947 24.9531 317.779ZM30.5195 319.46V320.292H27.0918V319.46H30.5195ZM28.252 317.919H29.3359V324.23C29.3359 324.445 29.3691 324.607 29.4355 324.716C29.502 324.825 29.5879 324.898 29.6934 324.933C29.7988 324.968 29.9121 324.986 30.0332 324.986C30.123 324.986 30.2168 324.978 30.3145 324.962C30.416 324.943 30.4922 324.927 30.543 324.915L30.5488 325.8C30.4629 325.827 30.3496 325.853 30.209 325.876C30.0723 325.904 29.9062 325.917 29.7109 325.917C29.4453 325.917 29.2012 325.865 28.9785 325.759C28.7559 325.654 28.5781 325.478 28.4453 325.232C28.3164 324.982 28.252 324.646 28.252 324.224V317.919ZM35.6699 324.335V319.46H36.7598V325.8H35.7227L35.6699 324.335ZM35.875 322.999L36.3262 322.988C36.3262 323.409 36.2812 323.8 36.1914 324.159C36.1055 324.515 35.9648 324.823 35.7695 325.085C35.5742 325.347 35.3184 325.552 35.002 325.7C34.6855 325.845 34.3008 325.917 33.8477 325.917C33.5391 325.917 33.2559 325.872 32.998 325.782C32.7441 325.693 32.5254 325.554 32.3418 325.366C32.1582 325.179 32.0156 324.935 31.9141 324.634C31.8164 324.333 31.7676 323.972 31.7676 323.55V319.46H32.8516V323.562C32.8516 323.847 32.8828 324.083 32.9453 324.271C33.0117 324.454 33.0996 324.601 33.209 324.71C33.3223 324.816 33.4473 324.89 33.584 324.933C33.7246 324.976 33.8691 324.997 34.0176 324.997C34.4785 324.997 34.8438 324.909 35.1133 324.734C35.3828 324.554 35.5762 324.314 35.6934 324.013C35.8145 323.708 35.875 323.37 35.875 322.999ZM40.9492 325.027C41.207 325.027 41.4453 324.974 41.6641 324.868C41.8828 324.763 42.0625 324.618 42.2031 324.435C42.3438 324.247 42.4238 324.034 42.4434 323.796H43.4746C43.4551 324.171 43.3281 324.521 43.0938 324.845C42.8633 325.165 42.5605 325.425 42.1855 325.624C41.8105 325.82 41.3984 325.917 40.9492 325.917C40.4727 325.917 40.0566 325.833 39.7012 325.665C39.3496 325.497 39.0566 325.267 38.8223 324.974C38.5918 324.681 38.418 324.345 38.3008 323.966C38.1875 323.583 38.1309 323.179 38.1309 322.753V322.507C38.1309 322.081 38.1875 321.679 38.3008 321.3C38.418 320.917 38.5918 320.579 38.8223 320.286C39.0566 319.993 39.3496 319.763 39.7012 319.595C40.0566 319.427 40.4727 319.343 40.9492 319.343C41.4453 319.343 41.8789 319.445 42.25 319.648C42.6211 319.847 42.9121 320.12 43.123 320.468C43.3379 320.812 43.4551 321.202 43.4746 321.64H42.4434C42.4238 321.378 42.3496 321.142 42.2207 320.931C42.0957 320.72 41.9238 320.552 41.7051 320.427C41.4902 320.298 41.2383 320.234 40.9492 320.234C40.6172 320.234 40.3379 320.3 40.1113 320.433C39.8887 320.562 39.7109 320.738 39.5781 320.96C39.4492 321.179 39.3555 321.423 39.2969 321.693C39.2422 321.958 39.2148 322.23 39.2148 322.507V322.753C39.2148 323.031 39.2422 323.304 39.2969 323.573C39.3516 323.843 39.4434 324.087 39.5723 324.306C39.7051 324.525 39.8828 324.7 40.1055 324.833C40.332 324.962 40.6133 325.027 40.9492 325.027ZM45.8711 319.46V325.8H44.7812V319.46H45.8711ZM44.6992 317.779C44.6992 317.603 44.752 317.454 44.8574 317.333C44.9668 317.212 45.127 317.152 45.3379 317.152C45.5449 317.152 45.7031 317.212 45.8125 317.333C45.9258 317.454 45.9824 317.603 45.9824 317.779C45.9824 317.947 45.9258 318.091 45.8125 318.212C45.7031 318.329 45.5449 318.388 45.3379 318.388C45.127 318.388 44.9668 318.329 44.8574 318.212C44.752 318.091 44.6992 317.947 44.6992 317.779ZM47.3242 322.7V322.566C47.3242 322.109 47.3906 321.685 47.5234 321.294C47.6562 320.9 47.8477 320.558 48.0977 320.269C48.3477 319.976 48.6504 319.749 49.0059 319.589C49.3613 319.425 49.7598 319.343 50.2012 319.343C50.6465 319.343 51.0469 319.425 51.4023 319.589C51.7617 319.749 52.0664 319.976 52.3164 320.269C52.5703 320.558 52.7637 320.9 52.8965 321.294C53.0293 321.685 53.0957 322.109 53.0957 322.566V322.7C53.0957 323.157 53.0293 323.581 52.8965 323.972C52.7637 324.363 52.5703 324.704 52.3164 324.997C52.0664 325.286 51.7637 325.513 51.4082 325.677C51.0566 325.837 50.6582 325.917 50.2129 325.917C49.7676 325.917 49.3672 325.837 49.0117 325.677C48.6562 325.513 48.3516 325.286 48.0977 324.997C47.8477 324.704 47.6562 324.363 47.5234 323.972C47.3906 323.581 47.3242 323.157 47.3242 322.7ZM48.4082 322.566V322.7C48.4082 323.017 48.4453 323.316 48.5195 323.597C48.5938 323.874 48.7051 324.12 48.8535 324.335C49.0059 324.55 49.1953 324.72 49.4219 324.845C49.6484 324.966 49.9121 325.027 50.2129 325.027C50.5098 325.027 50.7695 324.966 50.9922 324.845C51.2188 324.72 51.4062 324.55 51.5547 324.335C51.7031 324.12 51.8145 323.874 51.8887 323.597C51.9668 323.316 52.0059 323.017 52.0059 322.7V322.566C52.0059 322.253 51.9668 321.958 51.8887 321.681C51.8145 321.4 51.7012 321.152 51.5488 320.937C51.4004 320.718 51.2129 320.546 50.9863 320.421C50.7637 320.296 50.502 320.234 50.2012 320.234C49.9043 320.234 49.6426 320.296 49.416 320.421C49.1934 320.546 49.0059 320.718 48.8535 320.937C48.7051 321.152 48.5938 321.4 48.5195 321.681C48.4453 321.958 48.4082 322.253 48.4082 322.566ZM55.5391 320.814V325.8H54.4551V319.46H55.4805L55.5391 320.814ZM55.2812 322.39L54.8301 322.372C54.834 321.939 54.8984 321.538 55.0234 321.171C55.1484 320.8 55.3242 320.478 55.5508 320.204C55.7773 319.931 56.0469 319.72 56.3594 319.572C56.6758 319.419 57.0254 319.343 57.4082 319.343C57.7207 319.343 58.002 319.386 58.252 319.472C58.502 319.554 58.7148 319.687 58.8906 319.87C59.0703 320.054 59.207 320.292 59.3008 320.585C59.3945 320.874 59.4414 321.228 59.4414 321.646V325.8H58.3516V321.634C58.3516 321.302 58.3027 321.036 58.2051 320.837C58.1074 320.634 57.9648 320.488 57.7773 320.398C57.5898 320.304 57.3594 320.257 57.0859 320.257C56.8164 320.257 56.5703 320.314 56.3477 320.427C56.1289 320.54 55.9395 320.697 55.7793 320.896C55.623 321.095 55.5 321.323 55.4102 321.581C55.3242 321.835 55.2812 322.105 55.2812 322.39ZM64.8262 324.716V321.452C64.8262 321.202 64.7754 320.986 64.6738 320.802C64.5762 320.615 64.4277 320.47 64.2285 320.368C64.0293 320.267 63.7832 320.216 63.4902 320.216C63.2168 320.216 62.9766 320.263 62.7695 320.357C62.5664 320.45 62.4062 320.573 62.2891 320.726C62.1758 320.878 62.1191 321.042 62.1191 321.218H61.0352C61.0352 320.991 61.0938 320.767 61.2109 320.544C61.3281 320.322 61.4961 320.12 61.7148 319.941C61.9375 319.757 62.2031 319.613 62.5117 319.507C62.8242 319.398 63.1719 319.343 63.5547 319.343C64.0156 319.343 64.4219 319.421 64.7734 319.577C65.1289 319.734 65.4062 319.97 65.6055 320.286C65.8086 320.599 65.9102 320.991 65.9102 321.464V324.417C65.9102 324.628 65.9277 324.853 65.9629 325.091C66.002 325.329 66.0586 325.534 66.1328 325.706V325.8H65.002C64.9473 325.675 64.9043 325.509 64.873 325.302C64.8418 325.091 64.8262 324.896 64.8262 324.716ZM65.0137 321.956L65.0254 322.718H63.9297C63.6211 322.718 63.3457 322.743 63.1035 322.794C62.8613 322.841 62.6582 322.913 62.4941 323.011C62.3301 323.109 62.2051 323.232 62.1191 323.38C62.0332 323.525 61.9902 323.695 61.9902 323.89C61.9902 324.089 62.0352 324.271 62.125 324.435C62.2148 324.599 62.3496 324.73 62.5293 324.827C62.7129 324.921 62.9375 324.968 63.2031 324.968C63.5352 324.968 63.8281 324.898 64.082 324.757C64.3359 324.616 64.5371 324.445 64.6855 324.241C64.8379 324.038 64.9199 323.841 64.9316 323.65L65.3945 324.171C65.3672 324.335 65.293 324.517 65.1719 324.716C65.0508 324.915 64.8887 325.107 64.6855 325.29C64.4863 325.47 64.248 325.62 63.9707 325.741C63.6973 325.859 63.3887 325.917 63.0449 325.917C62.6152 325.917 62.2383 325.833 61.9141 325.665C61.5938 325.497 61.3438 325.273 61.1641 324.991C60.9883 324.706 60.9004 324.388 60.9004 324.036C60.9004 323.697 60.9668 323.398 61.0996 323.14C61.2324 322.878 61.4238 322.661 61.6738 322.49C61.9238 322.314 62.2246 322.181 62.5762 322.091C62.9277 322.001 63.3203 321.956 63.7539 321.956H65.0137ZM68.793 319.46V325.8H67.7031V319.46H68.793ZM67.6211 317.779C67.6211 317.603 67.6738 317.454 67.7793 317.333C67.8887 317.212 68.0488 317.152 68.2598 317.152C68.4668 317.152 68.625 317.212 68.7344 317.333C68.8477 317.454 68.9043 317.603 68.9043 317.779C68.9043 317.947 68.8477 318.091 68.7344 318.212C68.625 318.329 68.4668 318.388 68.2598 318.388C68.0488 318.388 67.8887 318.329 67.7793 318.212C67.6738 318.091 67.6211 317.947 67.6211 317.779ZM74.2246 324.118C74.2246 323.962 74.1895 323.818 74.1191 323.685C74.0527 323.548 73.9141 323.425 73.7031 323.316C73.4961 323.202 73.1836 323.105 72.7656 323.023C72.4141 322.948 72.0957 322.861 71.8105 322.759C71.5293 322.657 71.2891 322.534 71.0898 322.39C70.8945 322.245 70.7441 322.075 70.6387 321.88C70.5332 321.685 70.4805 321.456 70.4805 321.195C70.4805 320.945 70.5352 320.708 70.6445 320.486C70.7578 320.263 70.916 320.066 71.1191 319.894C71.3262 319.722 71.5742 319.587 71.8633 319.49C72.1523 319.392 72.4746 319.343 72.8301 319.343C73.3379 319.343 73.7715 319.433 74.1309 319.613C74.4902 319.792 74.7656 320.032 74.957 320.333C75.1484 320.63 75.2441 320.96 75.2441 321.323H74.1602C74.1602 321.148 74.1074 320.978 74.002 320.814C73.9004 320.646 73.75 320.507 73.5508 320.398C73.3555 320.288 73.1152 320.234 72.8301 320.234C72.5293 320.234 72.2852 320.281 72.0977 320.374C71.9141 320.464 71.7793 320.579 71.6934 320.72C71.6113 320.861 71.5703 321.009 71.5703 321.165C71.5703 321.282 71.5898 321.388 71.6289 321.482C71.6719 321.572 71.7461 321.656 71.8516 321.734C71.957 321.808 72.1055 321.878 72.2969 321.945C72.4883 322.011 72.7324 322.077 73.0293 322.144C73.5488 322.261 73.9766 322.402 74.3125 322.566C74.6484 322.73 74.8984 322.931 75.0625 323.169C75.2266 323.407 75.3086 323.697 75.3086 324.036C75.3086 324.314 75.25 324.568 75.1328 324.798C75.0195 325.029 74.8535 325.228 74.6348 325.396C74.4199 325.56 74.1621 325.689 73.8613 325.782C73.5645 325.872 73.2305 325.917 72.8594 325.917C72.3008 325.917 71.8281 325.818 71.4414 325.618C71.0547 325.419 70.7617 325.161 70.5625 324.845C70.3633 324.529 70.2637 324.195 70.2637 323.843H71.3535C71.3691 324.14 71.4551 324.376 71.6113 324.552C71.7676 324.724 71.959 324.847 72.1855 324.921C72.4121 324.991 72.6367 325.027 72.8594 325.027C73.1562 325.027 73.4043 324.988 73.6035 324.909C73.8066 324.831 73.9609 324.724 74.0664 324.587C74.1719 324.45 74.2246 324.294 74.2246 324.118Z" fill="#A7A7A7"/>
<path d="M242.418 310.88V311.8H238.153V310.88H242.418ZM238.375 303.269V311.8H237.244V303.269H238.375ZM247.287 310.716V307.452C247.287 307.202 247.237 306.986 247.135 306.802C247.037 306.615 246.889 306.47 246.69 306.368C246.491 306.267 246.244 306.216 245.951 306.216C245.678 306.216 245.438 306.263 245.231 306.357C245.028 306.45 244.867 306.573 244.75 306.726C244.637 306.878 244.58 307.042 244.58 307.218H243.496C243.496 306.991 243.555 306.767 243.672 306.544C243.789 306.322 243.957 306.12 244.176 305.941C244.399 305.757 244.664 305.613 244.973 305.507C245.285 305.398 245.633 305.343 246.016 305.343C246.477 305.343 246.883 305.421 247.235 305.577C247.59 305.734 247.867 305.97 248.067 306.286C248.27 306.599 248.371 306.991 248.371 307.464V310.417C248.371 310.628 248.389 310.853 248.424 311.091C248.463 311.329 248.52 311.534 248.594 311.706V311.8H247.463C247.408 311.675 247.366 311.509 247.334 311.302C247.303 311.091 247.287 310.896 247.287 310.716ZM247.475 307.956L247.487 308.718H246.391C246.082 308.718 245.807 308.743 245.565 308.794C245.323 308.841 245.119 308.913 244.955 309.011C244.791 309.109 244.666 309.232 244.58 309.38C244.494 309.525 244.451 309.695 244.451 309.89C244.451 310.089 244.496 310.271 244.586 310.435C244.676 310.599 244.811 310.73 244.991 310.827C245.174 310.921 245.399 310.968 245.664 310.968C245.996 310.968 246.289 310.898 246.543 310.757C246.797 310.616 246.998 310.445 247.147 310.241C247.299 310.038 247.381 309.841 247.393 309.65L247.856 310.171C247.828 310.335 247.754 310.517 247.633 310.716C247.512 310.915 247.35 311.107 247.147 311.29C246.948 311.47 246.709 311.62 246.432 311.741C246.158 311.859 245.85 311.917 245.506 311.917C245.076 311.917 244.7 311.833 244.375 311.665C244.055 311.497 243.805 311.273 243.625 310.991C243.45 310.706 243.362 310.388 243.362 310.036C243.362 309.697 243.428 309.398 243.561 309.14C243.694 308.878 243.885 308.661 244.135 308.49C244.385 308.314 244.686 308.181 245.037 308.091C245.389 308.001 245.782 307.956 246.215 307.956H247.475ZM251.16 306.814V311.8H250.076V305.46H251.102L251.16 306.814ZM250.903 308.39L250.451 308.372C250.455 307.939 250.52 307.538 250.645 307.171C250.77 306.8 250.946 306.478 251.172 306.204C251.399 305.931 251.668 305.72 251.981 305.572C252.297 305.419 252.647 305.343 253.03 305.343C253.342 305.343 253.623 305.386 253.873 305.472C254.123 305.554 254.336 305.687 254.512 305.87C254.692 306.054 254.828 306.292 254.922 306.585C255.016 306.874 255.063 307.228 255.063 307.646V311.8H253.973V307.634C253.973 307.302 253.924 307.036 253.826 306.837C253.729 306.634 253.586 306.488 253.399 306.398C253.211 306.304 252.981 306.257 252.707 306.257C252.438 306.257 252.192 306.314 251.969 306.427C251.75 306.54 251.561 306.697 251.401 306.896C251.244 307.095 251.121 307.323 251.032 307.581C250.946 307.835 250.903 308.105 250.903 308.39ZM260.705 310.57V302.8H261.795V311.8H260.799L260.705 310.57ZM256.44 308.7V308.577C256.44 308.093 256.498 307.654 256.616 307.259C256.737 306.861 256.907 306.519 257.125 306.234C257.348 305.948 257.612 305.73 257.916 305.577C258.225 305.421 258.569 305.343 258.948 305.343C259.346 305.343 259.694 305.413 259.991 305.554C260.291 305.691 260.545 305.892 260.752 306.157C260.963 306.419 261.129 306.736 261.25 307.107C261.371 307.478 261.455 307.898 261.502 308.366V308.906C261.459 309.37 261.375 309.788 261.25 310.159C261.129 310.531 260.963 310.847 260.752 311.109C260.545 311.37 260.291 311.572 259.991 311.712C259.69 311.849 259.338 311.917 258.936 311.917C258.565 311.917 258.225 311.837 257.916 311.677C257.612 311.517 257.348 311.292 257.125 311.003C256.907 310.714 256.737 310.374 256.616 309.984C256.498 309.589 256.44 309.161 256.44 308.7ZM257.53 308.577V308.7C257.53 309.017 257.561 309.314 257.623 309.591C257.69 309.868 257.791 310.113 257.928 310.323C258.065 310.534 258.239 310.7 258.45 310.822C258.66 310.939 258.912 310.997 259.205 310.997C259.565 310.997 259.86 310.921 260.09 310.769C260.325 310.616 260.512 310.415 260.653 310.165C260.793 309.915 260.903 309.644 260.981 309.351V307.939C260.934 307.724 260.866 307.517 260.776 307.318C260.69 307.115 260.576 306.935 260.436 306.779C260.299 306.618 260.129 306.491 259.926 306.398C259.727 306.304 259.491 306.257 259.217 306.257C258.92 306.257 258.664 306.32 258.45 306.445C258.239 306.566 258.065 306.734 257.928 306.948C257.791 307.159 257.69 307.406 257.623 307.687C257.561 307.964 257.53 308.261 257.53 308.577ZM264.66 305.46V311.8H263.571V305.46H264.66ZM263.489 303.779C263.489 303.603 263.541 303.454 263.647 303.333C263.756 303.212 263.916 303.152 264.127 303.152C264.334 303.152 264.492 303.212 264.602 303.333C264.715 303.454 264.772 303.603 264.772 303.779C264.772 303.947 264.715 304.091 264.602 304.212C264.492 304.329 264.334 304.388 264.127 304.388C263.916 304.388 263.756 304.329 263.647 304.212C263.541 304.091 263.489 303.947 263.489 303.779ZM267.485 306.814V311.8H266.401V305.46H267.426L267.485 306.814ZM267.227 308.39L266.776 308.372C266.78 307.939 266.844 307.538 266.969 307.171C267.094 306.8 267.27 306.478 267.496 306.204C267.723 305.931 267.992 305.72 268.305 305.572C268.621 305.419 268.971 305.343 269.354 305.343C269.666 305.343 269.948 305.386 270.198 305.472C270.448 305.554 270.66 305.687 270.836 305.87C271.016 306.054 271.153 306.292 271.246 306.585C271.34 306.874 271.387 307.228 271.387 307.646V311.8H270.297V307.634C270.297 307.302 270.248 307.036 270.151 306.837C270.053 306.634 269.91 306.488 269.723 306.398C269.535 306.304 269.305 306.257 269.032 306.257C268.762 306.257 268.516 306.314 268.293 306.427C268.075 306.54 267.885 306.697 267.725 306.896C267.569 307.095 267.446 307.323 267.356 307.581C267.27 307.835 267.227 308.105 267.227 308.39ZM277.141 305.46H278.125V311.665C278.125 312.224 278.012 312.7 277.785 313.095C277.559 313.49 277.242 313.788 276.836 313.991C276.434 314.198 275.969 314.302 275.442 314.302C275.223 314.302 274.965 314.267 274.668 314.197C274.375 314.13 274.086 314.015 273.801 313.851C273.52 313.691 273.283 313.474 273.092 313.2L273.66 312.556C273.926 312.876 274.203 313.099 274.492 313.224C274.785 313.349 275.075 313.411 275.36 313.411C275.703 313.411 276 313.347 276.25 313.218C276.5 313.089 276.694 312.898 276.83 312.644C276.971 312.394 277.041 312.085 277.041 311.718V306.855L277.141 305.46ZM272.776 308.7V308.577C272.776 308.093 272.832 307.654 272.946 307.259C273.063 306.861 273.229 306.519 273.444 306.234C273.662 305.948 273.926 305.73 274.235 305.577C274.543 305.421 274.891 305.343 275.278 305.343C275.676 305.343 276.024 305.413 276.321 305.554C276.621 305.691 276.875 305.892 277.082 306.157C277.293 306.419 277.459 306.736 277.58 307.107C277.701 307.478 277.785 307.898 277.832 308.366V308.906C277.789 309.37 277.705 309.788 277.58 310.159C277.459 310.531 277.293 310.847 277.082 311.109C276.875 311.37 276.621 311.572 276.321 311.712C276.02 311.849 275.668 311.917 275.266 311.917C274.887 311.917 274.543 311.837 274.235 311.677C273.93 311.517 273.668 311.292 273.45 311.003C273.231 310.714 273.063 310.374 272.946 309.984C272.832 309.589 272.776 309.161 272.776 308.7ZM273.86 308.577V308.7C273.86 309.017 273.891 309.314 273.953 309.591C274.02 309.868 274.119 310.113 274.252 310.323C274.389 310.534 274.563 310.7 274.774 310.822C274.985 310.939 275.237 310.997 275.53 310.997C275.889 310.997 276.186 310.921 276.42 310.769C276.655 310.616 276.84 310.415 276.977 310.165C277.117 309.915 277.227 309.644 277.305 309.351V307.939C277.262 307.724 277.196 307.517 277.106 307.318C277.02 307.115 276.907 306.935 276.766 306.779C276.629 306.618 276.459 306.491 276.256 306.398C276.053 306.304 275.815 306.257 275.541 306.257C275.244 306.257 274.989 306.32 274.774 306.445C274.563 306.566 274.389 306.734 274.252 306.948C274.119 307.159 274.02 307.406 273.953 307.687C273.891 307.964 273.86 308.261 273.86 308.577ZM245.073 322.454H242.793V321.534H245.073C245.514 321.534 245.871 321.464 246.145 321.323C246.418 321.183 246.617 320.988 246.742 320.738C246.871 320.488 246.936 320.202 246.936 319.882C246.936 319.589 246.871 319.314 246.742 319.056C246.617 318.798 246.418 318.591 246.145 318.435C245.871 318.275 245.514 318.195 245.073 318.195H243.057V325.8H241.926V317.269H245.073C245.717 317.269 246.262 317.38 246.707 317.603C247.153 317.825 247.491 318.134 247.721 318.529C247.951 318.919 248.067 319.366 248.067 319.87C248.067 320.417 247.951 320.884 247.721 321.271C247.491 321.657 247.153 321.952 246.707 322.156C246.262 322.355 245.717 322.454 245.073 322.454ZM253 324.716V321.452C253 321.202 252.95 320.986 252.848 320.802C252.75 320.615 252.602 320.47 252.403 320.368C252.203 320.267 251.957 320.216 251.664 320.216C251.391 320.216 251.151 320.263 250.944 320.357C250.741 320.45 250.58 320.573 250.463 320.726C250.35 320.878 250.293 321.042 250.293 321.218H249.209C249.209 320.991 249.268 320.767 249.385 320.544C249.502 320.322 249.67 320.12 249.889 319.941C250.112 319.757 250.377 319.613 250.686 319.507C250.998 319.398 251.346 319.343 251.729 319.343C252.19 319.343 252.596 319.421 252.948 319.577C253.303 319.734 253.58 319.97 253.78 320.286C253.983 320.599 254.084 320.991 254.084 321.464V324.417C254.084 324.628 254.102 324.853 254.137 325.091C254.176 325.329 254.233 325.534 254.307 325.706V325.8H253.176C253.121 325.675 253.078 325.509 253.047 325.302C253.016 325.091 253 324.896 253 324.716ZM253.188 321.956L253.2 322.718H252.104C251.795 322.718 251.52 322.743 251.278 322.794C251.035 322.841 250.832 322.913 250.668 323.011C250.504 323.109 250.379 323.232 250.293 323.38C250.207 323.525 250.164 323.695 250.164 323.89C250.164 324.089 250.209 324.271 250.299 324.435C250.389 324.599 250.524 324.73 250.703 324.827C250.887 324.921 251.112 324.968 251.377 324.968C251.709 324.968 252.002 324.898 252.256 324.757C252.51 324.616 252.711 324.445 252.86 324.241C253.012 324.038 253.094 323.841 253.106 323.65L253.569 324.171C253.541 324.335 253.467 324.517 253.346 324.716C253.225 324.915 253.063 325.107 252.86 325.29C252.66 325.47 252.422 325.62 252.145 325.741C251.871 325.859 251.563 325.917 251.219 325.917C250.789 325.917 250.412 325.833 250.088 325.665C249.768 325.497 249.518 325.273 249.338 324.991C249.162 324.706 249.075 324.388 249.075 324.036C249.075 323.697 249.141 323.398 249.274 323.14C249.407 322.878 249.598 322.661 249.848 322.49C250.098 322.314 250.399 322.181 250.75 322.091C251.102 322.001 251.494 321.956 251.928 321.956H253.188ZM259.897 319.46H260.881V325.665C260.881 326.224 260.768 326.7 260.541 327.095C260.315 327.49 259.998 327.788 259.592 327.991C259.19 328.198 258.725 328.302 258.198 328.302C257.979 328.302 257.721 328.267 257.424 328.197C257.131 328.13 256.842 328.015 256.557 327.851C256.276 327.691 256.039 327.474 255.848 327.2L256.416 326.556C256.682 326.876 256.959 327.099 257.248 327.224C257.541 327.349 257.83 327.411 258.116 327.411C258.459 327.411 258.756 327.347 259.006 327.218C259.256 327.089 259.45 326.898 259.586 326.644C259.727 326.394 259.797 326.085 259.797 325.718V320.855L259.897 319.46ZM255.532 322.7V322.577C255.532 322.093 255.588 321.654 255.701 321.259C255.819 320.861 255.985 320.519 256.2 320.234C256.418 319.948 256.682 319.73 256.991 319.577C257.299 319.421 257.647 319.343 258.033 319.343C258.432 319.343 258.78 319.413 259.076 319.554C259.377 319.691 259.631 319.892 259.838 320.157C260.049 320.419 260.215 320.736 260.336 321.107C260.457 321.478 260.541 321.898 260.588 322.366V322.906C260.545 323.37 260.461 323.788 260.336 324.159C260.215 324.531 260.049 324.847 259.838 325.109C259.631 325.37 259.377 325.572 259.076 325.712C258.776 325.849 258.424 325.917 258.022 325.917C257.643 325.917 257.299 325.837 256.991 325.677C256.686 325.517 256.424 325.292 256.205 325.003C255.987 324.714 255.819 324.374 255.701 323.984C255.588 323.589 255.532 323.161 255.532 322.7ZM256.616 322.577V322.7C256.616 323.017 256.647 323.314 256.709 323.591C256.776 323.868 256.875 324.113 257.008 324.323C257.145 324.534 257.319 324.7 257.53 324.822C257.741 324.939 257.992 324.997 258.285 324.997C258.645 324.997 258.942 324.921 259.176 324.769C259.41 324.616 259.596 324.415 259.733 324.165C259.873 323.915 259.983 323.644 260.061 323.351V321.939C260.018 321.724 259.951 321.517 259.862 321.318C259.776 321.115 259.662 320.935 259.522 320.779C259.385 320.618 259.215 320.491 259.012 320.398C258.809 320.304 258.571 320.257 258.297 320.257C258 320.257 257.744 320.32 257.53 320.445C257.319 320.566 257.145 320.734 257.008 320.948C256.875 321.159 256.776 321.406 256.709 321.687C256.647 321.964 256.616 322.261 256.616 322.577ZM265.158 325.917C264.717 325.917 264.317 325.843 263.957 325.695C263.602 325.542 263.295 325.329 263.037 325.056C262.783 324.782 262.588 324.458 262.451 324.083C262.315 323.708 262.246 323.298 262.246 322.853V322.607C262.246 322.091 262.323 321.632 262.475 321.23C262.627 320.823 262.834 320.48 263.096 320.198C263.358 319.917 263.655 319.704 263.987 319.56C264.319 319.415 264.662 319.343 265.018 319.343C265.471 319.343 265.862 319.421 266.19 319.577C266.522 319.734 266.793 319.952 267.004 320.234C267.215 320.511 267.371 320.839 267.473 321.218C267.575 321.593 267.625 322.003 267.625 322.448V322.935H262.891V322.05H266.541V321.968C266.526 321.687 266.467 321.413 266.366 321.148C266.268 320.882 266.112 320.663 265.897 320.491C265.682 320.32 265.389 320.234 265.018 320.234C264.772 320.234 264.545 320.286 264.338 320.392C264.131 320.493 263.953 320.646 263.805 320.849C263.657 321.052 263.541 321.3 263.459 321.593C263.377 321.886 263.336 322.224 263.336 322.607V322.853C263.336 323.154 263.377 323.437 263.459 323.702C263.545 323.964 263.668 324.195 263.828 324.394C263.992 324.593 264.19 324.749 264.42 324.863C264.655 324.976 264.92 325.032 265.217 325.032C265.6 325.032 265.924 324.954 266.19 324.798C266.455 324.642 266.688 324.433 266.887 324.171L267.543 324.693C267.407 324.9 267.233 325.097 267.022 325.284C266.811 325.472 266.551 325.624 266.242 325.741C265.938 325.859 265.576 325.917 265.158 325.917ZM272.582 324.118C272.582 323.962 272.547 323.818 272.477 323.685C272.41 323.548 272.272 323.425 272.061 323.316C271.854 323.202 271.541 323.105 271.123 323.023C270.772 322.948 270.453 322.861 270.168 322.759C269.887 322.657 269.647 322.534 269.448 322.39C269.252 322.245 269.102 322.075 268.996 321.88C268.891 321.685 268.838 321.456 268.838 321.195C268.838 320.945 268.893 320.708 269.002 320.486C269.116 320.263 269.274 320.066 269.477 319.894C269.684 319.722 269.932 319.587 270.221 319.49C270.51 319.392 270.832 319.343 271.188 319.343C271.696 319.343 272.129 319.433 272.489 319.613C272.848 319.792 273.123 320.032 273.315 320.333C273.506 320.63 273.602 320.96 273.602 321.323H272.518C272.518 321.148 272.465 320.978 272.36 320.814C272.258 320.646 272.108 320.507 271.908 320.398C271.713 320.288 271.473 320.234 271.188 320.234C270.887 320.234 270.643 320.281 270.455 320.374C270.272 320.464 270.137 320.579 270.051 320.72C269.969 320.861 269.928 321.009 269.928 321.165C269.928 321.282 269.948 321.388 269.987 321.482C270.03 321.572 270.104 321.656 270.209 321.734C270.315 321.808 270.463 321.878 270.655 321.945C270.846 322.011 271.09 322.077 271.387 322.144C271.907 322.261 272.334 322.402 272.67 322.566C273.006 322.73 273.256 322.931 273.42 323.169C273.584 323.407 273.666 323.697 273.666 324.036C273.666 324.314 273.608 324.568 273.491 324.798C273.377 325.029 273.211 325.228 272.992 325.396C272.778 325.56 272.52 325.689 272.219 325.782C271.922 325.872 271.588 325.917 271.217 325.917C270.658 325.917 270.186 325.818 269.799 325.618C269.412 325.419 269.119 325.161 268.92 324.845C268.721 324.529 268.621 324.195 268.621 323.843H269.711C269.727 324.14 269.813 324.376 269.969 324.552C270.125 324.724 270.317 324.847 270.543 324.921C270.77 324.991 270.994 325.027 271.217 325.027C271.514 325.027 271.762 324.988 271.961 324.909C272.164 324.831 272.319 324.724 272.424 324.587C272.53 324.45 272.582 324.294 272.582 324.118Z" fill="#A7A7A7"/>
<path d="M341.54 304.025L338.716 311.8H337.562L340.814 303.269H341.558L341.54 304.025ZM343.907 311.8L341.077 304.025L341.06 303.269H341.804L345.068 311.8H343.907ZM343.761 308.642V309.568H338.968V308.642H343.761ZM347.13 306.679V314.238H346.04V305.46H347.036L347.13 306.679ZM351.402 308.577V308.7C351.402 309.161 351.347 309.589 351.237 309.984C351.128 310.374 350.968 310.714 350.757 311.003C350.55 311.292 350.294 311.517 349.989 311.677C349.685 311.837 349.335 311.917 348.941 311.917C348.538 311.917 348.183 311.851 347.874 311.718C347.566 311.585 347.304 311.392 347.089 311.138C346.874 310.884 346.702 310.579 346.573 310.224C346.448 309.868 346.362 309.468 346.316 309.023V308.366C346.362 307.898 346.45 307.478 346.579 307.107C346.708 306.736 346.878 306.419 347.089 306.157C347.304 305.892 347.564 305.691 347.868 305.554C348.173 305.413 348.525 305.343 348.923 305.343C349.321 305.343 349.675 305.421 349.984 305.577C350.292 305.73 350.552 305.948 350.763 306.234C350.974 306.519 351.132 306.861 351.237 307.259C351.347 307.654 351.402 308.093 351.402 308.577ZM350.312 308.7V308.577C350.312 308.261 350.279 307.964 350.212 307.687C350.146 307.406 350.042 307.159 349.902 306.948C349.765 306.734 349.589 306.566 349.374 306.445C349.159 306.32 348.904 306.257 348.607 306.257C348.333 306.257 348.095 306.304 347.892 306.398C347.693 306.491 347.523 306.618 347.382 306.779C347.241 306.935 347.126 307.115 347.036 307.318C346.95 307.517 346.886 307.724 346.843 307.939V309.456C346.921 309.73 347.03 309.988 347.171 310.23C347.312 310.468 347.499 310.661 347.734 310.81C347.968 310.954 348.263 311.027 348.618 311.027C348.911 311.027 349.163 310.966 349.374 310.845C349.589 310.72 349.765 310.55 349.902 310.335C350.042 310.12 350.146 309.874 350.212 309.597C350.279 309.316 350.312 309.017 350.312 308.7ZM353.962 302.8V311.8H352.872V302.8H353.962ZM356.88 305.46V311.8H355.79V305.46H356.88ZM355.708 303.779C355.708 303.603 355.761 303.454 355.866 303.333C355.976 303.212 356.136 303.152 356.347 303.152C356.554 303.152 356.712 303.212 356.821 303.333C356.935 303.454 356.991 303.603 356.991 303.779C356.991 303.947 356.935 304.091 356.821 304.212C356.712 304.329 356.554 304.388 356.347 304.388C356.136 304.388 355.976 304.329 355.866 304.212C355.761 304.091 355.708 303.947 355.708 303.779ZM361.157 311.027C361.415 311.027 361.654 310.974 361.872 310.868C362.091 310.763 362.271 310.618 362.411 310.435C362.552 310.247 362.632 310.034 362.652 309.796H363.683C363.663 310.171 363.536 310.521 363.302 310.845C363.071 311.165 362.769 311.425 362.394 311.624C362.019 311.82 361.607 311.917 361.157 311.917C360.681 311.917 360.265 311.833 359.909 311.665C359.558 311.497 359.265 311.267 359.03 310.974C358.8 310.681 358.626 310.345 358.509 309.966C358.396 309.583 358.339 309.179 358.339 308.753V308.507C358.339 308.081 358.396 307.679 358.509 307.3C358.626 306.917 358.8 306.579 359.03 306.286C359.265 305.993 359.558 305.763 359.909 305.595C360.265 305.427 360.681 305.343 361.157 305.343C361.654 305.343 362.087 305.445 362.458 305.648C362.829 305.847 363.12 306.12 363.331 306.468C363.546 306.812 363.663 307.202 363.683 307.64H362.652C362.632 307.378 362.558 307.142 362.429 306.931C362.304 306.72 362.132 306.552 361.913 306.427C361.698 306.298 361.446 306.234 361.157 306.234C360.825 306.234 360.546 306.3 360.32 306.433C360.097 306.562 359.919 306.738 359.786 306.96C359.657 307.179 359.564 307.423 359.505 307.693C359.45 307.958 359.423 308.23 359.423 308.507V308.753C359.423 309.031 359.45 309.304 359.505 309.573C359.56 309.843 359.652 310.087 359.78 310.306C359.913 310.525 360.091 310.7 360.314 310.833C360.54 310.962 360.821 311.027 361.157 311.027ZM368.64 310.716V307.452C368.64 307.202 368.589 306.986 368.487 306.802C368.39 306.615 368.241 306.47 368.042 306.368C367.843 306.267 367.597 306.216 367.304 306.216C367.03 306.216 366.79 306.263 366.583 306.357C366.38 306.45 366.22 306.573 366.103 306.726C365.989 306.878 365.933 307.042 365.933 307.218H364.849C364.849 306.991 364.907 306.767 365.025 306.544C365.142 306.322 365.31 306.12 365.529 305.941C365.751 305.757 366.017 305.613 366.325 305.507C366.638 305.398 366.986 305.343 367.368 305.343C367.829 305.343 368.236 305.421 368.587 305.577C368.943 305.734 369.22 305.97 369.419 306.286C369.622 306.599 369.724 306.991 369.724 307.464V310.417C369.724 310.628 369.741 310.853 369.777 311.091C369.816 311.329 369.872 311.534 369.946 311.706V311.8H368.816C368.761 311.675 368.718 311.509 368.687 311.302C368.655 311.091 368.64 310.896 368.64 310.716ZM368.827 307.956L368.839 308.718H367.743C367.435 308.718 367.159 308.743 366.917 308.794C366.675 308.841 366.472 308.913 366.308 309.011C366.144 309.109 366.019 309.232 365.933 309.38C365.847 309.525 365.804 309.695 365.804 309.89C365.804 310.089 365.849 310.271 365.939 310.435C366.029 310.599 366.163 310.73 366.343 310.827C366.527 310.921 366.751 310.968 367.017 310.968C367.349 310.968 367.642 310.898 367.896 310.757C368.15 310.616 368.351 310.445 368.499 310.241C368.652 310.038 368.734 309.841 368.745 309.65L369.208 310.171C369.181 310.335 369.107 310.517 368.986 310.716C368.864 310.915 368.702 311.107 368.499 311.29C368.3 311.47 368.062 311.62 367.784 311.741C367.511 311.859 367.202 311.917 366.859 311.917C366.429 311.917 366.052 311.833 365.728 311.665C365.407 311.497 365.157 311.273 364.978 310.991C364.802 310.706 364.714 310.388 364.714 310.036C364.714 309.697 364.78 309.398 364.913 309.14C365.046 308.878 365.237 308.661 365.487 308.49C365.737 308.314 366.038 308.181 366.39 308.091C366.741 308.001 367.134 307.956 367.568 307.956H368.827ZM374.083 305.46V306.292H370.655V305.46H374.083ZM371.816 303.919H372.9V310.23C372.9 310.445 372.933 310.607 372.999 310.716C373.066 310.825 373.152 310.898 373.257 310.933C373.362 310.968 373.476 310.986 373.597 310.986C373.687 310.986 373.78 310.978 373.878 310.962C373.98 310.943 374.056 310.927 374.107 310.915L374.112 311.8C374.027 311.827 373.913 311.853 373.773 311.876C373.636 311.904 373.47 311.917 373.275 311.917C373.009 311.917 372.765 311.865 372.542 311.759C372.32 311.654 372.142 311.478 372.009 311.232C371.88 310.982 371.816 310.646 371.816 310.224V303.919ZM376.532 305.46V311.8H375.443V305.46H376.532ZM375.361 303.779C375.361 303.603 375.413 303.454 375.519 303.333C375.628 303.212 375.788 303.152 375.999 303.152C376.206 303.152 376.364 303.212 376.474 303.333C376.587 303.454 376.644 303.603 376.644 303.779C376.644 303.947 376.587 304.091 376.474 304.212C376.364 304.329 376.206 304.388 375.999 304.388C375.788 304.388 375.628 304.329 375.519 304.212C375.413 304.091 375.361 303.947 375.361 303.779ZM380.2 310.822L381.935 305.46H383.042L380.763 311.8H380.036L380.2 310.822ZM378.753 305.46L380.54 310.851L380.663 311.8H379.937L377.64 305.46H378.753ZM383.704 308.7V308.566C383.704 308.109 383.771 307.685 383.904 307.294C384.036 306.9 384.228 306.558 384.478 306.269C384.728 305.976 385.03 305.749 385.386 305.589C385.741 305.425 386.14 305.343 386.581 305.343C387.027 305.343 387.427 305.425 387.782 305.589C388.142 305.749 388.446 305.976 388.696 306.269C388.95 306.558 389.144 306.9 389.277 307.294C389.409 307.685 389.476 308.109 389.476 308.566V308.7C389.476 309.157 389.409 309.581 389.277 309.972C389.144 310.363 388.95 310.704 388.696 310.997C388.446 311.286 388.144 311.513 387.788 311.677C387.437 311.837 387.038 311.917 386.593 311.917C386.148 311.917 385.747 311.837 385.392 311.677C385.036 311.513 384.732 311.286 384.478 310.997C384.228 310.704 384.036 310.363 383.904 309.972C383.771 309.581 383.704 309.157 383.704 308.7ZM384.788 308.566V308.7C384.788 309.017 384.825 309.316 384.9 309.597C384.974 309.874 385.085 310.12 385.234 310.335C385.386 310.55 385.575 310.72 385.802 310.845C386.029 310.966 386.292 311.027 386.593 311.027C386.89 311.027 387.15 310.966 387.372 310.845C387.599 310.72 387.786 310.55 387.935 310.335C388.083 310.12 388.195 309.874 388.269 309.597C388.347 309.316 388.386 309.017 388.386 308.7V308.566C388.386 308.253 388.347 307.958 388.269 307.681C388.195 307.4 388.081 307.152 387.929 306.937C387.78 306.718 387.593 306.546 387.366 306.421C387.144 306.296 386.882 306.234 386.581 306.234C386.284 306.234 386.023 306.296 385.796 306.421C385.573 306.546 385.386 306.718 385.234 306.937C385.085 307.152 384.974 307.4 384.9 307.681C384.825 307.958 384.788 308.253 384.788 308.566ZM394.527 310.118C394.527 309.962 394.491 309.818 394.421 309.685C394.355 309.548 394.216 309.425 394.005 309.316C393.798 309.202 393.486 309.105 393.068 309.023C392.716 308.948 392.398 308.861 392.112 308.759C391.831 308.657 391.591 308.534 391.392 308.39C391.196 308.245 391.046 308.075 390.941 307.88C390.835 307.685 390.782 307.456 390.782 307.195C390.782 306.945 390.837 306.708 390.946 306.486C391.06 306.263 391.218 306.066 391.421 305.894C391.628 305.722 391.876 305.587 392.165 305.49C392.454 305.392 392.777 305.343 393.132 305.343C393.64 305.343 394.073 305.433 394.433 305.613C394.792 305.792 395.068 306.032 395.259 306.333C395.45 306.63 395.546 306.96 395.546 307.323H394.462C394.462 307.148 394.409 306.978 394.304 306.814C394.202 306.646 394.052 306.507 393.853 306.398C393.657 306.288 393.417 306.234 393.132 306.234C392.831 306.234 392.587 306.281 392.4 306.374C392.216 306.464 392.081 306.579 391.995 306.72C391.913 306.861 391.872 307.009 391.872 307.165C391.872 307.282 391.892 307.388 391.931 307.482C391.974 307.572 392.048 307.656 392.154 307.734C392.259 307.808 392.407 307.878 392.599 307.945C392.79 308.011 393.034 308.077 393.331 308.144C393.851 308.261 394.279 308.402 394.614 308.566C394.95 308.73 395.2 308.931 395.364 309.169C395.529 309.407 395.611 309.697 395.611 310.036C395.611 310.314 395.552 310.568 395.435 310.798C395.321 311.029 395.155 311.228 394.937 311.396C394.722 311.56 394.464 311.689 394.163 311.782C393.866 311.872 393.532 311.917 393.161 311.917C392.603 311.917 392.13 311.818 391.743 311.618C391.357 311.419 391.064 311.161 390.864 310.845C390.665 310.529 390.566 310.195 390.566 309.843H391.655C391.671 310.14 391.757 310.376 391.913 310.552C392.07 310.724 392.261 310.847 392.487 310.921C392.714 310.991 392.939 311.027 393.161 311.027C393.458 311.027 393.706 310.988 393.905 310.909C394.109 310.831 394.263 310.724 394.368 310.587C394.474 310.45 394.527 310.294 394.527 310.118ZM350.019 317.269H351.114L353.909 324.224L356.698 317.269H357.8L354.331 325.8H353.476L350.019 317.269ZM349.661 317.269H350.628L350.786 322.472V325.8H349.661V317.269ZM357.185 317.269H358.152V325.8H357.027V322.472L357.185 317.269ZM359.687 322.7V322.566C359.687 322.109 359.753 321.685 359.886 321.294C360.019 320.9 360.21 320.558 360.46 320.269C360.71 319.976 361.013 319.749 361.368 319.589C361.724 319.425 362.122 319.343 362.564 319.343C363.009 319.343 363.409 319.425 363.765 319.589C364.124 319.749 364.429 319.976 364.679 320.269C364.933 320.558 365.126 320.9 365.259 321.294C365.392 321.685 365.458 322.109 365.458 322.566V322.7C365.458 323.157 365.392 323.581 365.259 323.972C365.126 324.363 364.933 324.704 364.679 324.997C364.429 325.286 364.126 325.513 363.771 325.677C363.419 325.837 363.021 325.917 362.575 325.917C362.13 325.917 361.73 325.837 361.374 325.677C361.019 325.513 360.714 325.286 360.46 324.997C360.21 324.704 360.019 324.363 359.886 323.972C359.753 323.581 359.687 323.157 359.687 322.7ZM360.771 322.566V322.7C360.771 323.017 360.808 323.316 360.882 323.597C360.956 323.874 361.068 324.12 361.216 324.335C361.368 324.55 361.558 324.72 361.784 324.845C362.011 324.966 362.275 325.027 362.575 325.027C362.872 325.027 363.132 324.966 363.355 324.845C363.581 324.72 363.769 324.55 363.917 324.335C364.066 324.12 364.177 323.874 364.251 323.597C364.329 323.316 364.368 323.017 364.368 322.7V322.566C364.368 322.253 364.329 321.958 364.251 321.681C364.177 321.4 364.064 321.152 363.911 320.937C363.763 320.718 363.575 320.546 363.349 320.421C363.126 320.296 362.864 320.234 362.564 320.234C362.267 320.234 362.005 320.296 361.779 320.421C361.556 320.546 361.368 320.718 361.216 320.937C361.068 321.152 360.956 321.4 360.882 321.681C360.808 321.958 360.771 322.253 360.771 322.566ZM366.812 316.8H367.902V324.57L367.808 325.8H366.812V316.8ZM372.185 322.577V322.7C372.185 323.161 372.13 323.589 372.021 323.984C371.911 324.374 371.751 324.714 371.54 325.003C371.329 325.292 371.071 325.517 370.767 325.677C370.462 325.837 370.112 325.917 369.718 325.917C369.316 325.917 368.962 325.849 368.657 325.712C368.357 325.572 368.103 325.37 367.896 325.109C367.689 324.847 367.523 324.531 367.398 324.159C367.277 323.788 367.193 323.37 367.146 322.906V322.366C367.193 321.898 367.277 321.478 367.398 321.107C367.523 320.736 367.689 320.419 367.896 320.157C368.103 319.892 368.357 319.691 368.657 319.554C368.958 319.413 369.308 319.343 369.706 319.343C370.105 319.343 370.458 319.421 370.767 319.577C371.075 319.73 371.333 319.948 371.54 320.234C371.751 320.519 371.911 320.861 372.021 321.259C372.13 321.654 372.185 322.093 372.185 322.577ZM371.095 322.7V322.577C371.095 322.261 371.066 321.964 371.007 321.687C370.948 321.406 370.855 321.159 370.726 320.948C370.597 320.734 370.427 320.566 370.216 320.445C370.005 320.32 369.745 320.257 369.437 320.257C369.163 320.257 368.925 320.304 368.722 320.398C368.523 320.491 368.353 320.618 368.212 320.779C368.071 320.935 367.956 321.115 367.866 321.318C367.78 321.517 367.716 321.724 367.673 321.939V323.351C367.736 323.624 367.837 323.888 367.978 324.142C368.122 324.392 368.314 324.597 368.552 324.757C368.794 324.917 369.093 324.997 369.448 324.997C369.741 324.997 369.991 324.939 370.198 324.822C370.409 324.7 370.579 324.534 370.708 324.323C370.841 324.113 370.939 323.868 371.001 323.591C371.064 323.314 371.095 323.017 371.095 322.7ZM374.734 319.46V325.8H373.644V319.46H374.734ZM373.562 317.779C373.562 317.603 373.614 317.454 373.72 317.333C373.829 317.212 373.989 317.152 374.2 317.152C374.407 317.152 374.566 317.212 374.675 317.333C374.788 317.454 374.845 317.603 374.845 317.779C374.845 317.947 374.788 318.091 374.675 318.212C374.566 318.329 374.407 318.388 374.2 318.388C373.989 318.388 373.829 318.329 373.72 318.212C373.614 318.091 373.562 317.947 373.562 317.779ZM377.652 316.8V325.8H376.562V316.8H377.652ZM382.023 325.917C381.581 325.917 381.181 325.843 380.821 325.695C380.466 325.542 380.159 325.329 379.902 325.056C379.648 324.782 379.452 324.458 379.316 324.083C379.179 323.708 379.111 323.298 379.111 322.853V322.607C379.111 322.091 379.187 321.632 379.339 321.23C379.491 320.823 379.698 320.48 379.96 320.198C380.222 319.917 380.519 319.704 380.851 319.56C381.183 319.415 381.527 319.343 381.882 319.343C382.335 319.343 382.726 319.421 383.054 319.577C383.386 319.734 383.657 319.952 383.868 320.234C384.079 320.511 384.236 320.839 384.337 321.218C384.439 321.593 384.489 322.003 384.489 322.448V322.935H379.755V322.05H383.405V321.968C383.39 321.687 383.331 321.413 383.23 321.148C383.132 320.882 382.976 320.663 382.761 320.491C382.546 320.32 382.253 320.234 381.882 320.234C381.636 320.234 381.409 320.286 381.202 320.392C380.995 320.493 380.818 320.646 380.669 320.849C380.521 321.052 380.405 321.3 380.323 321.593C380.241 321.886 380.2 322.224 380.2 322.607V322.853C380.2 323.154 380.241 323.437 380.323 323.702C380.409 323.964 380.532 324.195 380.693 324.394C380.857 324.593 381.054 324.749 381.284 324.863C381.519 324.976 381.784 325.032 382.081 325.032C382.464 325.032 382.788 324.954 383.054 324.798C383.32 324.642 383.552 324.433 383.751 324.171L384.407 324.693C384.271 324.9 384.097 325.097 383.886 325.284C383.675 325.472 383.415 325.624 383.107 325.741C382.802 325.859 382.441 325.917 382.023 325.917Z" fill="#A7A7A7"/>
<path d="M453.448 311.622L455.142 305.669H455.962L455.487 307.983L453.665 314.2H452.851L453.448 311.622ZM451.696 305.669L453.044 311.505L453.448 314.2H452.64L450.571 305.669H451.696ZM458.154 311.499L459.472 305.669H460.603L458.54 314.2H457.732L458.154 311.499ZM456.085 305.669L457.732 311.622L458.329 314.2H457.515L455.757 307.983L455.277 305.669H456.085ZM464.136 314.317C463.695 314.317 463.294 314.243 462.935 314.094C462.579 313.942 462.273 313.729 462.015 313.456C461.761 313.182 461.566 312.858 461.429 312.483C461.292 312.108 461.224 311.698 461.224 311.253V311.007C461.224 310.491 461.3 310.032 461.452 309.63C461.605 309.223 461.812 308.88 462.073 308.598C462.335 308.317 462.632 308.104 462.964 307.96C463.296 307.815 463.64 307.743 463.995 307.743C464.448 307.743 464.839 307.821 465.167 307.977C465.499 308.134 465.771 308.352 465.982 308.634C466.193 308.911 466.349 309.239 466.45 309.618C466.552 309.993 466.603 310.403 466.603 310.848V311.335H461.868V310.45H465.519V310.368C465.503 310.087 465.445 309.813 465.343 309.548C465.245 309.282 465.089 309.063 464.874 308.891C464.659 308.719 464.366 308.634 463.995 308.634C463.749 308.634 463.523 308.686 463.316 308.792C463.109 308.893 462.931 309.046 462.782 309.249C462.634 309.452 462.519 309.7 462.437 309.993C462.355 310.286 462.314 310.624 462.314 311.007V311.253C462.314 311.553 462.355 311.837 462.437 312.102C462.523 312.364 462.646 312.594 462.806 312.794C462.97 312.993 463.167 313.149 463.398 313.262C463.632 313.376 463.898 313.432 464.195 313.432C464.577 313.432 464.902 313.354 465.167 313.198C465.433 313.042 465.665 312.833 465.864 312.571L466.521 313.093C466.384 313.3 466.21 313.497 465.999 313.684C465.788 313.872 465.529 314.024 465.22 314.141C464.915 314.259 464.554 314.317 464.136 314.317ZM467.862 305.2H468.952V312.969L468.859 314.2H467.862V305.2ZM473.236 310.977V311.1C473.236 311.561 473.181 311.989 473.071 312.384C472.962 312.774 472.802 313.114 472.591 313.403C472.38 313.692 472.122 313.917 471.818 314.077C471.513 314.237 471.163 314.317 470.769 314.317C470.366 314.317 470.013 314.249 469.708 314.112C469.407 313.971 469.154 313.77 468.946 313.509C468.739 313.247 468.573 312.93 468.448 312.559C468.327 312.188 468.243 311.77 468.196 311.305V310.766C468.243 310.298 468.327 309.878 468.448 309.507C468.573 309.135 468.739 308.819 468.946 308.557C469.154 308.292 469.407 308.091 469.708 307.954C470.009 307.813 470.359 307.743 470.757 307.743C471.155 307.743 471.509 307.821 471.818 307.977C472.126 308.13 472.384 308.348 472.591 308.634C472.802 308.919 472.962 309.26 473.071 309.659C473.181 310.053 473.236 310.493 473.236 310.977ZM472.146 311.1V310.977C472.146 310.661 472.116 310.364 472.058 310.087C471.999 309.805 471.905 309.559 471.777 309.348C471.648 309.134 471.478 308.966 471.267 308.844C471.056 308.719 470.796 308.657 470.487 308.657C470.214 308.657 469.976 308.704 469.773 308.798C469.573 308.891 469.404 309.018 469.263 309.178C469.122 309.335 469.007 309.514 468.917 309.718C468.831 309.917 468.767 310.124 468.724 310.339V311.751C468.786 312.024 468.888 312.288 469.029 312.542C469.173 312.792 469.364 312.997 469.603 313.157C469.845 313.317 470.144 313.397 470.499 313.397C470.792 313.397 471.042 313.339 471.249 313.221C471.46 313.1 471.63 312.934 471.759 312.723C471.892 312.512 471.989 312.268 472.052 311.991C472.114 311.714 472.146 311.417 472.146 311.1ZM478.298 312.518C478.298 312.362 478.263 312.218 478.193 312.085C478.126 311.948 477.987 311.825 477.777 311.716C477.57 311.602 477.257 311.505 476.839 311.423C476.487 311.348 476.169 311.26 475.884 311.159C475.603 311.057 475.362 310.934 475.163 310.79C474.968 310.645 474.818 310.475 474.712 310.28C474.607 310.085 474.554 309.856 474.554 309.594C474.554 309.344 474.609 309.108 474.718 308.885C474.831 308.663 474.989 308.466 475.193 308.294C475.4 308.122 475.648 307.987 475.937 307.889C476.226 307.792 476.548 307.743 476.904 307.743C477.411 307.743 477.845 307.833 478.204 308.012C478.564 308.192 478.839 308.432 479.03 308.733C479.222 309.03 479.318 309.36 479.318 309.723H478.234C478.234 309.548 478.181 309.378 478.075 309.214C477.974 309.046 477.823 308.907 477.624 308.798C477.429 308.688 477.189 308.634 476.904 308.634C476.603 308.634 476.359 308.68 476.171 308.774C475.987 308.864 475.853 308.979 475.767 309.12C475.685 309.26 475.644 309.409 475.644 309.565C475.644 309.682 475.663 309.788 475.702 309.882C475.745 309.971 475.82 310.055 475.925 310.134C476.03 310.208 476.179 310.278 476.37 310.344C476.562 310.411 476.806 310.477 477.103 310.544C477.622 310.661 478.05 310.802 478.386 310.966C478.722 311.13 478.972 311.331 479.136 311.569C479.3 311.807 479.382 312.096 479.382 312.436C479.382 312.714 479.323 312.968 479.206 313.198C479.093 313.428 478.927 313.628 478.708 313.796C478.493 313.96 478.236 314.089 477.935 314.182C477.638 314.272 477.304 314.317 476.933 314.317C476.374 314.317 475.902 314.218 475.515 314.018C475.128 313.819 474.835 313.561 474.636 313.245C474.437 312.928 474.337 312.594 474.337 312.243H475.427C475.443 312.54 475.529 312.776 475.685 312.952C475.841 313.124 476.032 313.247 476.259 313.321C476.486 313.391 476.71 313.427 476.933 313.427C477.23 313.427 477.478 313.387 477.677 313.309C477.88 313.231 478.034 313.124 478.14 312.987C478.245 312.85 478.298 312.694 478.298 312.518ZM481.984 307.86V314.2H480.894V307.86H481.984ZM480.812 306.178C480.812 306.003 480.864 305.854 480.97 305.733C481.079 305.612 481.239 305.552 481.45 305.552C481.657 305.552 481.816 305.612 481.925 305.733C482.038 305.854 482.095 306.003 482.095 306.178C482.095 306.346 482.038 306.491 481.925 306.612C481.816 306.729 481.657 306.788 481.45 306.788C481.239 306.788 481.079 306.729 480.97 306.612C480.864 306.491 480.812 306.346 480.812 306.178ZM486.378 307.86V308.692H482.95V307.86H486.378ZM484.111 306.319H485.195V312.63C485.195 312.844 485.228 313.007 485.294 313.116C485.361 313.225 485.446 313.298 485.552 313.333C485.657 313.368 485.771 313.385 485.892 313.385C485.982 313.385 486.075 313.378 486.173 313.362C486.275 313.343 486.351 313.327 486.402 313.315L486.407 314.2C486.321 314.227 486.208 314.253 486.068 314.276C485.931 314.303 485.765 314.317 485.57 314.317C485.304 314.317 485.06 314.264 484.837 314.159C484.614 314.053 484.437 313.878 484.304 313.632C484.175 313.382 484.111 313.046 484.111 312.624V306.319ZM490.28 314.317C489.839 314.317 489.439 314.243 489.079 314.094C488.724 313.942 488.417 313.729 488.159 313.456C487.905 313.182 487.71 312.858 487.573 312.483C487.437 312.108 487.368 311.698 487.368 311.253V311.007C487.368 310.491 487.445 310.032 487.597 309.63C487.749 309.223 487.956 308.88 488.218 308.598C488.48 308.317 488.777 308.104 489.109 307.96C489.441 307.815 489.784 307.743 490.14 307.743C490.593 307.743 490.984 307.821 491.312 307.977C491.644 308.134 491.915 308.352 492.126 308.634C492.337 308.911 492.493 309.239 492.595 309.618C492.696 309.993 492.747 310.403 492.747 310.848V311.335H488.013V310.45H491.663V310.368C491.648 310.087 491.589 309.813 491.487 309.548C491.39 309.282 491.234 309.063 491.019 308.891C490.804 308.719 490.511 308.634 490.14 308.634C489.894 308.634 489.667 308.686 489.46 308.792C489.253 308.893 489.075 309.046 488.927 309.249C488.779 309.452 488.663 309.7 488.581 309.993C488.499 310.286 488.458 310.624 488.458 311.007V311.253C488.458 311.553 488.499 311.837 488.581 312.102C488.667 312.364 488.79 312.594 488.95 312.794C489.114 312.993 489.312 313.149 489.542 313.262C489.777 313.376 490.042 313.432 490.339 313.432C490.722 313.432 491.046 313.354 491.312 313.198C491.577 313.042 491.81 312.833 492.009 312.571L492.665 313.093C492.529 313.3 492.355 313.497 492.144 313.684C491.933 313.872 491.673 314.024 491.364 314.141C491.06 314.259 490.698 314.317 490.28 314.317ZM497.704 312.518C497.704 312.362 497.669 312.218 497.599 312.085C497.532 311.948 497.394 311.825 497.183 311.716C496.976 311.602 496.663 311.505 496.245 311.423C495.894 311.348 495.575 311.26 495.29 311.159C495.009 311.057 494.769 310.934 494.57 310.79C494.374 310.645 494.224 310.475 494.118 310.28C494.013 310.085 493.96 309.856 493.96 309.594C493.96 309.344 494.015 309.108 494.124 308.885C494.237 308.663 494.396 308.466 494.599 308.294C494.806 308.122 495.054 307.987 495.343 307.889C495.632 307.792 495.954 307.743 496.31 307.743C496.818 307.743 497.251 307.833 497.611 308.012C497.97 308.192 498.245 308.432 498.437 308.733C498.628 309.03 498.724 309.36 498.724 309.723H497.64C497.64 309.548 497.587 309.378 497.482 309.214C497.38 309.046 497.23 308.907 497.03 308.798C496.835 308.688 496.595 308.634 496.31 308.634C496.009 308.634 495.765 308.68 495.577 308.774C495.394 308.864 495.259 308.979 495.173 309.12C495.091 309.26 495.05 309.409 495.05 309.565C495.05 309.682 495.07 309.788 495.109 309.882C495.152 309.971 495.226 310.055 495.331 310.134C495.437 310.208 495.585 310.278 495.777 310.344C495.968 310.411 496.212 310.477 496.509 310.544C497.029 310.661 497.456 310.802 497.792 310.966C498.128 311.13 498.378 311.331 498.542 311.569C498.706 311.807 498.788 312.096 498.788 312.436C498.788 312.714 498.73 312.968 498.612 313.198C498.499 313.428 498.333 313.628 498.114 313.796C497.9 313.96 497.642 314.089 497.341 314.182C497.044 314.272 496.71 314.317 496.339 314.317C495.78 314.317 495.308 314.218 494.921 314.018C494.534 313.819 494.241 313.561 494.042 313.245C493.843 312.928 493.743 312.594 493.743 312.243H494.833C494.849 312.54 494.935 312.776 495.091 312.952C495.247 313.124 495.439 313.247 495.665 313.321C495.892 313.391 496.116 313.427 496.339 313.427C496.636 313.427 496.884 313.387 497.083 313.309C497.286 313.231 497.441 313.124 497.546 312.987C497.652 312.85 497.704 312.694 497.704 312.518ZM459.736 328.2H457.954L457.966 327.28H459.736C460.345 327.28 460.853 327.153 461.259 326.899C461.665 326.641 461.97 326.282 462.173 325.821C462.38 325.356 462.484 324.813 462.484 324.192V323.671C462.484 323.182 462.425 322.749 462.308 322.37C462.191 321.987 462.019 321.665 461.792 321.403C461.566 321.137 461.288 320.936 460.96 320.8C460.636 320.663 460.263 320.594 459.841 320.594H457.919V319.669H459.841C460.4 319.669 460.909 319.762 461.37 319.95C461.831 320.134 462.228 320.401 462.56 320.753C462.896 321.1 463.154 321.522 463.333 322.018C463.513 322.51 463.603 323.065 463.603 323.682V324.192C463.603 324.809 463.513 325.366 463.333 325.862C463.154 326.354 462.894 326.774 462.554 327.122C462.218 327.469 461.812 327.737 461.335 327.925C460.862 328.108 460.329 328.2 459.736 328.2ZM458.558 319.669V328.2H457.427V319.669H458.558ZM467.769 328.317C467.327 328.317 466.927 328.243 466.568 328.094C466.212 327.942 465.905 327.729 465.648 327.456C465.394 327.182 465.198 326.858 465.062 326.483C464.925 326.108 464.857 325.698 464.857 325.253V325.007C464.857 324.491 464.933 324.032 465.085 323.63C465.237 323.223 465.445 322.88 465.706 322.598C465.968 322.317 466.265 322.104 466.597 321.96C466.929 321.815 467.273 321.743 467.628 321.743C468.081 321.743 468.472 321.821 468.8 321.977C469.132 322.134 469.404 322.352 469.614 322.634C469.825 322.911 469.982 323.239 470.083 323.618C470.185 323.993 470.236 324.403 470.236 324.848V325.335H465.501V324.45H469.152V324.368C469.136 324.087 469.077 323.813 468.976 323.548C468.878 323.282 468.722 323.063 468.507 322.891C468.292 322.719 467.999 322.634 467.628 322.634C467.382 322.634 467.155 322.686 466.948 322.792C466.741 322.893 466.564 323.046 466.415 323.249C466.267 323.452 466.152 323.7 466.07 323.993C465.987 324.286 465.946 324.624 465.946 325.007V325.253C465.946 325.553 465.987 325.837 466.07 326.102C466.155 326.364 466.279 326.594 466.439 326.794C466.603 326.993 466.8 327.149 467.03 327.262C467.265 327.376 467.53 327.432 467.827 327.432C468.21 327.432 468.534 327.354 468.8 327.198C469.066 327.042 469.298 326.833 469.497 326.571L470.154 327.093C470.017 327.3 469.843 327.497 469.632 327.684C469.421 327.872 469.161 328.024 468.853 328.141C468.548 328.259 468.187 328.317 467.769 328.317ZM475.193 326.518C475.193 326.362 475.157 326.218 475.087 326.085C475.021 325.948 474.882 325.825 474.671 325.716C474.464 325.602 474.152 325.505 473.734 325.423C473.382 325.348 473.064 325.26 472.779 325.159C472.497 325.057 472.257 324.934 472.058 324.79C471.862 324.645 471.712 324.475 471.607 324.28C471.501 324.085 471.448 323.856 471.448 323.594C471.448 323.344 471.503 323.108 471.612 322.885C471.726 322.663 471.884 322.466 472.087 322.294C472.294 322.122 472.542 321.987 472.831 321.889C473.12 321.792 473.443 321.743 473.798 321.743C474.306 321.743 474.739 321.833 475.099 322.012C475.458 322.192 475.734 322.432 475.925 322.733C476.116 323.03 476.212 323.36 476.212 323.723H475.128C475.128 323.548 475.075 323.378 474.97 323.214C474.868 323.046 474.718 322.907 474.519 322.798C474.323 322.688 474.083 322.634 473.798 322.634C473.497 322.634 473.253 322.68 473.066 322.774C472.882 322.864 472.747 322.979 472.661 323.12C472.579 323.26 472.538 323.409 472.538 323.565C472.538 323.682 472.558 323.788 472.597 323.882C472.64 323.971 472.714 324.055 472.82 324.134C472.925 324.208 473.073 324.278 473.265 324.344C473.456 324.411 473.7 324.477 473.997 324.544C474.517 324.661 474.945 324.802 475.28 324.966C475.616 325.13 475.866 325.331 476.03 325.569C476.195 325.807 476.277 326.096 476.277 326.436C476.277 326.714 476.218 326.968 476.101 327.198C475.987 327.428 475.821 327.628 475.603 327.796C475.388 327.96 475.13 328.089 474.829 328.182C474.532 328.272 474.198 328.317 473.827 328.317C473.269 328.317 472.796 328.218 472.409 328.018C472.023 327.819 471.73 327.561 471.53 327.245C471.331 326.928 471.232 326.594 471.232 326.243H472.321C472.337 326.54 472.423 326.776 472.579 326.952C472.736 327.124 472.927 327.247 473.154 327.321C473.38 327.391 473.605 327.427 473.827 327.427C474.124 327.427 474.372 327.387 474.571 327.309C474.775 327.231 474.929 327.124 475.034 326.987C475.14 326.85 475.193 326.694 475.193 326.518ZM478.878 321.86V328.2H477.788V321.86H478.878ZM477.706 320.178C477.706 320.003 477.759 319.854 477.864 319.733C477.974 319.612 478.134 319.552 478.345 319.552C478.552 319.552 478.71 319.612 478.82 319.733C478.933 319.854 478.989 320.003 478.989 320.178C478.989 320.346 478.933 320.491 478.82 320.612C478.71 320.729 478.552 320.788 478.345 320.788C478.134 320.788 477.974 320.729 477.864 320.612C477.759 320.491 477.706 320.346 477.706 320.178ZM484.726 321.86H485.71V328.065C485.71 328.624 485.597 329.1 485.37 329.495C485.144 329.889 484.827 330.188 484.421 330.391C484.019 330.598 483.554 330.702 483.027 330.702C482.808 330.702 482.55 330.667 482.253 330.596C481.96 330.53 481.671 330.415 481.386 330.251C481.105 330.091 480.868 329.874 480.677 329.6L481.245 328.956C481.511 329.276 481.788 329.499 482.077 329.624C482.37 329.749 482.659 329.811 482.945 329.811C483.288 329.811 483.585 329.747 483.835 329.618C484.085 329.489 484.279 329.298 484.415 329.044C484.556 328.794 484.626 328.485 484.626 328.118V323.255L484.726 321.86ZM480.361 325.1V324.977C480.361 324.493 480.417 324.053 480.53 323.659C480.648 323.26 480.814 322.919 481.029 322.634C481.247 322.348 481.511 322.13 481.82 321.977C482.128 321.821 482.476 321.743 482.862 321.743C483.261 321.743 483.609 321.813 483.905 321.954C484.206 322.091 484.46 322.292 484.667 322.557C484.878 322.819 485.044 323.135 485.165 323.507C485.286 323.878 485.37 324.298 485.417 324.766V325.305C485.374 325.77 485.29 326.188 485.165 326.559C485.044 326.93 484.878 327.247 484.667 327.509C484.46 327.77 484.206 327.971 483.905 328.112C483.605 328.249 483.253 328.317 482.851 328.317C482.472 328.317 482.128 328.237 481.82 328.077C481.515 327.917 481.253 327.692 481.034 327.403C480.816 327.114 480.648 326.774 480.53 326.384C480.417 325.989 480.361 325.561 480.361 325.1ZM481.445 324.977V325.1C481.445 325.417 481.476 325.714 481.538 325.991C481.605 326.268 481.704 326.512 481.837 326.723C481.974 326.934 482.148 327.1 482.359 327.221C482.57 327.339 482.821 327.397 483.114 327.397C483.474 327.397 483.771 327.321 484.005 327.169C484.239 327.016 484.425 326.815 484.562 326.565C484.702 326.315 484.812 326.044 484.89 325.751V324.339C484.847 324.124 484.78 323.917 484.691 323.718C484.605 323.514 484.491 323.335 484.351 323.178C484.214 323.018 484.044 322.891 483.841 322.798C483.638 322.704 483.4 322.657 483.126 322.657C482.829 322.657 482.573 322.719 482.359 322.844C482.148 322.966 481.974 323.134 481.837 323.348C481.704 323.559 481.605 323.805 481.538 324.087C481.476 324.364 481.445 324.661 481.445 324.977ZM488.441 323.214V328.2H487.357V321.86H488.382L488.441 323.214ZM488.183 324.79L487.732 324.772C487.736 324.339 487.8 323.938 487.925 323.571C488.05 323.2 488.226 322.878 488.452 322.604C488.679 322.331 488.948 322.12 489.261 321.971C489.577 321.819 489.927 321.743 490.31 321.743C490.622 321.743 490.904 321.786 491.154 321.872C491.404 321.954 491.616 322.087 491.792 322.27C491.972 322.454 492.109 322.692 492.202 322.985C492.296 323.274 492.343 323.628 492.343 324.046V328.2H491.253V324.034C491.253 323.702 491.204 323.436 491.107 323.237C491.009 323.034 490.866 322.887 490.679 322.798C490.491 322.704 490.261 322.657 489.987 322.657C489.718 322.657 489.472 322.714 489.249 322.827C489.03 322.94 488.841 323.096 488.681 323.296C488.525 323.495 488.402 323.723 488.312 323.981C488.226 324.235 488.183 324.505 488.183 324.79Z" fill="#A7A7A7"/>
</g>
<defs>
<clipPath id="clip0_395_170">
<rect width="500" height="370" fill="white"/>
</clipPath>
<clipPath id="clip1_395_170">
<rect width="441.383" height="255.138" fill="white" transform="translate(36.8 38.4)"/>
</clipPath>
</defs>
</svg>
