<svg width="25" height="25" viewBox="0 0 25 25" fill="none" xmlns="http://www.w3.org/2000/svg">
<path d="M12.3999 6.92746C11.3844 6.92746 10.3916 7.22833 9.54727 7.792C8.70289 8.35566 8.04476 9.15684 7.65614 10.0942C7.26751 11.0315 7.16583 12.063 7.36395 13.0581C7.56206 14.0531 8.05109 14.9672 8.76919 15.6847C9.48727 16.402 10.4021 16.8905 11.3981 17.0885C12.3943 17.2864 13.4266 17.1848 14.3648 16.7966C15.3031 16.4083 16.105 15.7508 16.6692 14.9073C17.2335 14.0636 17.5345 13.0718 17.5345 12.0573C17.5362 11.3831 17.4045 10.7154 17.147 10.0923C16.8896 9.46911 16.5115 8.90295 16.0343 8.42628C15.5572 7.94959 14.9905 7.5718 14.3668 7.31459C13.743 7.05738 13.0747 6.92582 12.3999 6.92746ZM12.3999 15.3979C11.7385 15.3979 11.0921 15.202 10.5422 14.8349C9.99238 14.4679 9.56375 13.9462 9.31068 13.3357C9.05759 12.7253 8.99138 12.0536 9.12039 11.4055C9.24941 10.7575 9.56787 10.1622 10.0355 9.69504C10.5031 9.22789 11.099 8.90973 11.7475 8.78084C12.3963 8.65194 13.0685 8.71809 13.6795 8.97094C14.2906 9.22378 14.8128 9.652 15.1801 10.2013C15.5475 10.7507 15.7437 11.3965 15.7437 12.0573C15.7437 12.9432 15.3914 13.793 14.7643 14.4195C14.1373 15.0459 13.2867 15.3979 12.3999 15.3979ZM18.9497 6.71476C18.9497 6.96223 18.8763 7.20413 18.7387 7.40988C18.601 7.61563 18.4054 7.77601 18.1766 7.87069C17.9478 7.9654 17.696 7.99017 17.453 7.9419C17.21 7.89362 16.987 7.77446 16.8118 7.59948C16.6367 7.4245 16.5174 7.20157 16.469 6.95886C16.4207 6.71615 16.4455 6.46459 16.5403 6.23596C16.6351 6.00735 16.7956 5.81194 17.0015 5.67446C17.2075 5.53697 17.4496 5.46359 17.6973 5.46359C18.0295 5.46359 18.3481 5.59541 18.5829 5.83006C18.8178 6.06469 18.9497 6.38294 18.9497 6.71476ZM22.3435 7.96593C22.38 6.41051 21.7993 4.90381 20.728 3.7745C19.6037 2.6906 18.0948 2.09663 16.5326 2.12295C14.9046 2.04788 9.8952 2.04788 8.26716 2.12295C6.71075 2.08928 5.20364 2.6691 4.07179 3.73697C3.00058 4.86628 2.41984 6.37298 2.45626 7.9284C2.38112 9.55491 2.38112 14.5596 2.45626 16.1861C2.41984 17.7416 3.00058 19.2483 4.07179 20.3776C5.20364 21.4454 6.71075 22.0252 8.26716 21.9916C9.92025 22.0917 14.8795 22.0917 16.5326 21.9916C18.0896 22.028 19.5976 21.4478 20.728 20.3776C21.7993 19.2483 22.38 17.7416 22.3435 16.1861C22.4187 14.5596 22.4187 9.55491 22.3435 7.9284V7.96593ZM20.2146 17.9753C20.0445 18.4057 19.7879 18.7965 19.4604 19.1236C19.1329 19.4508 18.7418 19.7072 18.311 19.8771C16.3668 20.2698 14.3794 20.4045 12.3999 20.2775C10.4247 20.4046 8.44125 20.27 6.50135 19.8771C6.07062 19.7072 5.6794 19.4508 5.35196 19.1236C5.02451 18.7965 4.76782 18.4057 4.59777 17.9753C4.07179 16.6491 4.1845 13.5211 4.1845 12.0698C4.1845 10.6184 4.07179 7.47798 4.59777 6.16424C4.76302 5.72967 5.01789 5.33468 5.34583 5.00488C5.67377 4.6751 6.06746 4.41788 6.50135 4.24995C8.44125 3.85705 10.4247 3.72243 12.3999 3.84957C14.3794 3.72264 16.3668 3.85727 18.311 4.24995C18.7418 4.41983 19.1329 4.67629 19.4604 5.00343C19.7879 5.33056 20.0445 5.72142 20.2146 6.15173C20.7405 7.47798 20.6153 10.6059 20.6153 12.0573C20.6153 13.5086 20.7405 16.6491 20.2146 17.9628V17.9753Z" fill="#C8C8C8"/>
</svg>
