<svg width="50" height="51" viewBox="0 0 50 51" fill="none" xmlns="http://www.w3.org/2000/svg">
<path d="M25.0032 2.02451C15.8502 2.02451 8.40369 9.47109 8.40369 18.6242C8.40369 24.724 11.6859 30.2497 17.0069 33.1741V37.4195H17.0033V40.8117H16.9985V45.9572H21.7953C21.8947 47.6383 23.2932 48.9755 24.9985 48.9755C26.7037 48.9755 28.1022 47.6383 28.2015 45.9572H32.9952V42.565H33.0001V37.4195H32.9996V33.1741C38.3206 30.2497 41.6027 24.724 41.6027 18.6242C41.6027 9.47109 34.1562 2.02451 25.0032 2.02451ZM18.7566 39.1727H31.2468V40.8118H18.7566V39.1727ZM24.9985 47.2223C24.1807 47.2223 23.6477 46.5971 23.5575 45.9573H26.4405C26.3463 46.67 25.7363 47.2223 24.9985 47.2223ZM31.2419 44.204H18.7518V42.565H31.2419V44.204ZM31.7255 31.8648L31.2463 32.1086V37.3713H25.8767V24.4167L31.0767 19.2164C31.419 18.8741 31.419 18.3191 31.0766 17.9767C30.7344 17.6345 30.1793 17.6344 29.8369 17.9768L25 22.8139L20.1632 17.9768C19.8209 17.6345 19.2658 17.6344 18.9235 17.9767C18.5811 18.3191 18.5811 18.8741 18.9234 19.2164L24.1234 24.4167V37.3713H18.7601V32.1086L18.281 31.8648C13.2699 29.3154 10.1569 24.2418 10.1569 18.6242C10.1569 10.4378 16.817 3.77781 25.0032 3.77781C33.1895 3.77781 39.8495 10.4378 39.8495 18.6242C39.8495 24.2418 36.7366 29.3154 31.7255 31.8648Z" fill="#EBEBEB"/>
<path d="M29.6297 7.33958C29.1455 7.33958 28.7531 7.73203 28.7531 8.21622C28.7531 8.70042 29.1455 9.09283 29.6297 9.09283C31.0086 9.09283 34.2405 10.7493 34.2405 13.9617C34.2405 14.4459 34.6329 14.8383 35.1171 14.8383C35.6013 14.8383 35.9937 14.4459 35.9937 13.9617C35.9937 9.61392 31.8507 7.33958 29.6297 7.33958Z" fill="#EBEBEB"/>
<path d="M5.81477 20.3023C5.81477 19.8181 5.42233 19.4256 4.93816 19.4256H0.963525C0.479359 19.4256 0.0869141 19.8181 0.0869141 20.3023C0.0869141 20.7864 0.479359 21.1789 0.963525 21.1789H4.93816C5.42233 21.1789 5.81477 20.7864 5.81477 20.3023Z" fill="#EBEBEB"/>
<path d="M6.11552 8.836C6.28674 9.0072 6.51105 9.09281 6.73544 9.09281C6.95974 9.09281 7.18413 9.0072 7.35524 8.83611C7.69769 8.49367 7.69769 7.9387 7.35535 7.59642L4.54513 4.78603C4.20297 4.44383 3.64783 4.44372 3.30541 4.78592C2.96299 5.12833 2.96299 5.68333 3.3053 6.02564L6.11552 8.836Z" fill="#EBEBEB"/>
<path d="M6.11591 31.7684L3.30541 34.5788C2.96299 34.9212 2.96299 35.4762 3.3053 35.8186C3.47652 35.9898 3.7008 36.0755 3.92522 36.0755C4.14949 36.0755 4.37391 35.9898 4.54499 35.8186L7.35552 33.0083C7.69794 32.6658 7.69794 32.1108 7.35563 31.7687C7.01335 31.4262 6.45822 31.4262 6.11591 31.7684Z" fill="#EBEBEB"/>
<path d="M49.0365 19.4256H45.0619C44.5778 19.4256 44.1853 19.8181 44.1853 20.3023C44.1853 20.7864 44.5778 21.1789 45.0619 21.1789H49.0365C49.5206 21.1789 49.9131 20.7864 49.9131 20.3023C49.9131 19.8181 49.5206 19.4256 49.0365 19.4256Z" fill="#EBEBEB"/>
<path d="M43.2645 9.09282C43.4888 9.09282 43.7132 9.00721 43.8844 8.83612L46.6948 6.02576C47.037 5.68334 47.037 5.12834 46.6948 4.78593C46.3523 4.44373 45.7974 4.44373 45.4549 4.78593L42.6445 7.59629C42.3022 7.93873 42.3022 8.49371 42.6445 8.83612C42.8158 9.00721 43.0402 9.09282 43.2645 9.09282Z" fill="#EBEBEB"/>
<path d="M43.8841 31.7684C43.542 31.4262 42.9869 31.4262 42.6444 31.7687C42.3021 32.1108 42.3021 32.6658 42.6445 33.0083L45.455 35.8186C45.6261 35.9898 45.8505 36.0755 46.0748 36.0755C46.2991 36.0755 46.5235 35.9898 46.6948 35.8186C47.037 35.4762 47.037 34.9212 46.6946 34.5788L43.8841 31.7684Z" fill="#EBEBEB"/>
</svg>
