<svg width="52" height="51" viewBox="0 0 52 51" fill="none" xmlns="http://www.w3.org/2000/svg">
<path d="M50.2414 33.5352L38.4805 26.4789C38.4805 26.482 38.4805 26.4859 38.4797 26.4891C38.4875 26.1594 38.5 25.8336 38.5 25.5C38.5 12.9797 32.4906 4.51172 26.8664 0.7625C26.6039 0.5875 26.3023 0.5 26 0.5C25.6977 0.5 25.3961 0.5875 25.1336 0.7625C19.5094 4.51172 13.5 12.9797 13.5 25.5C13.5 25.8336 13.5125 26.1594 13.5195 26.4891C13.5187 26.4859 13.5188 26.482 13.5188 26.4789L1.75859 33.5352C1.2875 33.8172 1 34.3258 1 34.875V39.5625C1 40.425 1.7 41.125 2.5625 41.125H15.9906C16.3938 42.3961 16.6969 43.1695 16.7359 43.2672C16.9742 43.8609 17.5492 44.25 18.1875 44.25H22.0938C22.0938 47.9883 24.1133 50.5 26 50.5C27.8719 50.5 29.8758 48.0266 29.9062 44.3352C29.9078 44.307 29.9086 44.2789 29.9086 44.25H33.8125C34.4508 44.25 35.0258 43.8609 35.2633 43.2672C35.3023 43.1695 35.6055 42.3961 36.0086 41.125H49.4375C50.3 41.125 51 40.425 51 39.5625V34.875C51 34.3258 50.7125 33.8172 50.2414 33.5352ZM26 2.0625C30.6875 5.1875 36.9375 13 36.9375 25.5C36.9375 28.9383 36.5164 32.1648 35.9836 34.875H16.0164C15.4836 32.1648 15.0625 28.9383 15.0625 25.5C15.0625 13 21.3125 5.1875 26 2.0625ZM2.5625 34.875L13.5914 28.257C13.7742 31.3047 14.2273 34.1039 14.7414 36.4375H2.5625V34.875ZM2.5625 39.5625V38H15.1086C15.2508 38.5687 15.3914 39.0906 15.5305 39.5797C15.5281 39.5734 15.5266 39.568 15.525 39.5625H2.5625ZM26 48.9375C25.2188 48.9375 23.6562 47.375 23.6562 44.25H28.3438C28.3438 47.375 26.7812 48.9375 26 48.9375ZM33.8125 42.6875H18.1875C18.1875 42.6875 17.2078 40.2375 16.3461 36.4375H35.6547C34.7922 40.2375 33.8125 42.6875 33.8125 42.6875ZM49.4375 39.5625H36.475C36.4734 39.5687 36.4719 39.5742 36.4695 39.5797C36.6086 39.0906 36.7492 38.568 36.8914 38H49.4375V39.5625ZM49.4375 36.4375H37.2586C37.7719 34.1047 38.225 31.3055 38.4086 28.257L49.4375 34.875V36.4375Z" fill="white" stroke="white"/>
<path d="M26 23.9375C28.5883 23.9375 30.6875 21.8383 30.6875 19.25C30.6875 16.6617 28.5883 14.5625 26 14.5625C23.4117 14.5625 21.3125 16.6617 21.3125 19.25C21.3125 21.8383 23.4117 23.9375 26 23.9375ZM26 16.125C27.7258 16.125 29.125 17.5242 29.125 19.25C29.125 20.9758 27.7258 22.375 26 22.375C24.2742 22.375 22.875 20.9758 22.875 19.25C22.875 17.5242 24.2742 16.125 26 16.125Z" fill="white" stroke="white"/>
</svg>
