<svg width="200" height="165" viewBox="0 0 200 165" fill="none" xmlns="http://www.w3.org/2000/svg">
<path d="M61.3977 110.978C64.226 110.002 65.3093 108.051 65.5271 106.586C65.3093 104.632 64.3027 103.841 63.9743 100.289C63.5902 96.1544 66.6662 86.2632 67.5809 84.4983C67.4563 84.1608 67.3277 83.8626 67.205 83.5159C62.9189 80.4644 58.553 74.9462 56.5468 64.9723C55.4739 59.64 56.3613 54.191 58.9313 49.5454C58.9313 49.5454 56.024 26.7809 60.1183 11.9131C56.2935 9.847 52.1283 10.195 46.4195 10.835C42.0384 11.3273 41.4167 12.3722 38.0516 11.8244C34.1952 11.1953 31.0658 9.88154 30.1246 9.35255C29.5823 9.04914 24.4957 14.1135 23.0796 18.2492C18.5875 31.3503 19.7936 40.3322 20.937 47.1283C20.8988 47.8243 20.8498 48.5176 20.8498 49.2211L21.8938 54.1988C21.8977 54.2513 21.8938 54.3003 21.8954 54.3501C19.6195 56.6409 18.2478 59.9526 18.972 63.5524C20.4633 70.9556 23.6741 73.9582 26.8359 75.2588C28.9329 81.8979 30.9676 86.09 33.3421 88.9086C33.9424 91.9807 34.4726 96.1527 34.0885 100.289C32.4858 117.615 0 108.489 0 138.907C0 142.89 10.1097 149.389 34.6008 151.261C34.5291 150.674 34.48 150.083 34.48 149.478C34.48 122.201 50.2809 114.817 61.3977 110.978Z" fill="#202020"/>
<path d="M165.372 100.289C164.988 96.1546 165.517 91.9848 166.117 88.9175C168.496 86.0942 170.53 81.8998 172.628 75.2573C175.788 73.9558 178.997 70.9519 180.487 63.5521C181.177 60.1438 179.983 56.9917 177.92 54.721C179.415 49.0971 185.294 23.0392 167.636 17.7545C161.764 9.51841 156.628 9.84717 147.818 10.8352C143.437 11.3275 142.815 12.3723 139.451 11.8246C138.715 11.7043 138.017 11.5544 137.344 11.3944C137.99 12.3824 138.605 13.4037 139.15 14.4949C145.045 26.3133 143.488 41.2811 141.636 50.4235C143.845 54.8871 144.568 60.017 143.57 64.9751C141.563 74.9429 137.199 80.4597 132.916 83.5117C132.701 84.1163 132.069 85.354 132.939 86.5746C133.733 88.0195 133.876 87.8818 134.742 88.9083C135.341 91.9804 135.87 96.1524 135.486 100.289C135.169 103.721 129.895 106.586 131.382 107.973C132.845 108.664 134.543 109.387 136.447 110.171C147.364 114.67 165.636 122.201 165.636 149.478C165.636 150.065 165.591 150.641 165.523 151.21C189.535 149.274 199.46 142.855 199.46 138.907C199.46 108.489 166.974 117.616 165.372 100.289Z" fill="#202020"/>
<path d="M117.262 105.014C116.82 100.256 117.43 95.4546 118.119 91.9182C120.857 88.673 123.202 83.8408 125.616 76.1936C129.255 74.6954 132.95 71.2381 134.666 62.717C135.456 58.7928 134.084 55.1642 131.711 52.5498C133.429 46.0752 140.197 16.0726 119.868 9.98872C113.108 0.505341 107.192 0.884379 97.0514 2.02237C92.0061 2.58808 91.2893 3.79209 87.417 3.16036C82.9759 2.43594 79.3739 0.923289 78.2902 0.315167C77.6661 -0.0358912 71.8089 5.79657 70.177 10.5575C65.0074 25.6403 66.3962 35.9837 67.711 43.8079C67.6678 44.6093 67.6082 45.4071 67.6082 46.2172L68.8127 51.9487C68.8166 52.0077 68.8127 52.0641 68.8143 52.1232C66.194 54.7594 64.6159 58.5725 65.45 62.717C67.1648 71.2412 70.8626 74.6976 74.5028 76.1945C76.9177 83.8386 79.2582 88.6686 81.9946 91.9138C82.6853 95.448 83.2957 100.254 82.8536 105.014C81.0078 124.961 43.6068 114.455 43.6068 149.479C43.6068 154.88 59.735 164.3 100.058 164.3C140.38 164.3 156.509 154.88 156.509 149.479C156.509 114.454 119.108 124.961 117.262 105.014ZM93.5118 158.503L83.2755 111.843L95.8679 117.724L95.1908 124.553L97.1913 124.504L93.5118 158.503ZM107.603 158.503L103.922 124.504L105.923 124.553L105.246 117.724L117.838 111.843L107.603 158.503Z" fill="#202020"/>
</svg>
