<svg width="20" height="17" viewBox="0 0 20 17" fill="none" xmlns="http://www.w3.org/2000/svg">
<path fill-rule="evenodd" clip-rule="evenodd" d="M16.4856 1.79857C16.7761 1.72974 16.9786 1.66206 17.1445 1.59099C17.377 1.49137 17.5697 1.37204 17.8743 1.17106C18.1302 1.00216 18.4582 0.987448 18.7282 1.13276C18.9982 1.27808 19.1666 1.55995 19.1666 1.86658C19.1666 2.76736 19.0544 3.50564 18.7946 4.15536C18.5759 4.70187 18.2687 5.14576 17.9013 5.54976C17.7461 8.35236 16.9349 10.5533 15.6946 12.2207C14.4091 13.9489 12.6988 15.0557 10.8959 15.6755C9.09823 16.2934 7.19884 16.4315 5.49723 16.2223C3.80678 16.0144 2.24418 15.4548 1.15502 14.6077C0.856757 14.3757 0.75191 13.972 0.899574 13.6242C1.04724 13.2764 1.41045 13.0714 1.78452 13.1249C2.85616 13.278 3.88773 13.0344 4.73598 12.686C4.569 12.5952 4.41156 12.4969 4.26522 12.3955C3.49227 11.8604 2.86865 11.134 2.58796 10.5726C2.4718 10.3404 2.4706 10.0671 2.58472 9.83386C2.64358 9.71345 2.72967 9.61086 2.83418 9.53261C1.70562 8.6012 1.24997 7.31295 1.24997 6.44991C1.24997 6.1933 1.36821 5.95099 1.57047 5.79307C1.65552 5.72667 1.75144 5.6783 1.85255 5.64916C1.7681 5.40188 1.70257 5.15204 1.65262 4.91016C1.43114 3.83778 1.4508 2.6274 1.69152 1.66447C1.7739 1.33496 2.04802 1.08841 2.38439 1.0413C2.72076 0.994189 3.05207 1.15594 3.2218 1.45015C4.11972 3.00655 5.77595 3.95789 7.31737 4.52143C8.04207 4.78638 8.71323 4.95521 9.21632 5.05901C9.3249 4.04186 9.6089 3.20303 10.0448 2.53679C10.6199 1.6578 11.422 1.13774 12.2833 0.905848C13.7689 0.505931 15.4173 0.961548 16.4856 1.79857ZM8.95698 6.70707C8.38607 6.59242 7.60141 6.39983 6.74508 6.08676C5.61407 5.67327 4.30072 5.02851 3.20058 4.02979C3.22027 4.21357 3.24822 4.3958 3.28484 4.57308C3.46922 5.46586 3.81182 5.96586 4.12266 6.12127C4.50283 6.31136 4.67902 6.75711 4.53154 7.15578C4.33187 7.69553 3.80672 7.73978 3.32957 7.62053C3.71334 8.19586 4.40312 8.76953 5.55364 8.96128C5.95046 9.02745 6.24338 9.36761 6.24987 9.76986C6.25636 10.1721 5.97456 10.5215 5.58007 10.6004L4.85469 10.7455C4.96566 10.8419 5.08582 10.9365 5.2139 11.0252C5.79467 11.4273 6.37778 11.6007 6.8812 11.4749C7.25824 11.3806 7.65037 11.5594 7.82634 11.906C8.0023 12.2525 7.91537 12.6747 7.6168 12.9234C7.0802 13.3701 6.45352 13.7285 5.82546 14.0259C5.53061 14.1656 5.2011 14.3034 4.84323 14.4248C5.11847 14.4835 5.40487 14.5317 5.70063 14.5681C7.17612 14.7495 8.8184 14.6272 10.3541 14.0994C11.8845 13.5733 13.2991 12.6488 14.3574 11.226C15.4141 9.8052 16.1516 7.83895 16.2506 5.16912C16.2583 4.95892 16.3453 4.75944 16.4941 4.61071C16.8687 4.236 17.1784 3.80651 17.3307 3.29528C17.0641 3.37839 16.764 3.45032 16.4065 3.51867C16.1352 3.57052 15.856 3.48466 15.6607 3.28942C15.0236 2.65231 13.7636 2.23335 12.7166 2.51521C12.2238 2.64787 11.7759 2.93506 11.4395 3.44925C11.0961 3.97423 10.8333 4.79207 10.8333 6.03328C10.8333 6.2691 10.7334 6.49386 10.5584 6.65187C10.1434 7.02645 9.44498 6.80506 8.95698 6.70707Z" fill="#C8C8C8"/>
</svg>
